<?xml version="1.0" standalone="no"?>
<!DOCTYPE svg PUBLIC "-//W3C//DTD SVG 1.1//EN" "http://www.w3.org/Graphics/SVG/1.1/DTD/svg11.dtd" >
<svg xmlns="http://www.w3.org/2000/svg" xmlns:xlink="http://www.w3.org/1999/xlink" version="1.1">
<metadata>
Created by FontForge 20170731 at Thu Oct 19 11:46:28 2023
 By Aleksey,,,
Pangram Pangram Foundry
</metadata>
<defs>
<font id="NeueMontreal-Italic" horiz-adv-x="0" >
  <font-face 
    font-family="Neue Montreal"
    font-weight="400"
    font-style="italic"
    font-stretch="normal"
    units-per-em="2048"
    panose-1="0 0 5 0 0 0 0 0 0 0"
    ascent="1587"
    descent="-461"
    x-height="1044"
    cap-height="1464"
    bbox="-1239 -541 2333.13 1972"
    underline-thickness="102"
    underline-position="-307"
    slope="-11"
    unicode-range="U+0020-25CA"
  />
<missing-glyph horiz-adv-x="1024" 
d="M840 1587v-2048h-650v2048h650zM682 1450h-338v-68h133v-75h-135v-68h340v68h-135v75h135v68zM547 1186h-205v-213h340v69h-135v144zM477 1116v-74h-67v74h67zM682 918h-340v-68h135v-76h-135v-67h205v143h135v68zM682 795h-68v-136h-272v-69h340v205zM682 545h-205v-115
h70v47h67v-96h-204v164h-68v-232h340v232zM682 190h-340v-231h340v231zM614 123v-96h-204v96h204zM682 -88h-340v-68h143l-143 -96v-67h340v67h-209l143 96h66v68z" />
    <glyph glyph-name=".notdef" horiz-adv-x="1024" 
d="M840 1587v-2048h-650v2048h650zM682 1450h-338v-68h133v-75h-135v-68h340v68h-135v75h135v68zM547 1186h-205v-213h340v69h-135v144zM477 1116v-74h-67v74h67zM682 918h-340v-68h135v-76h-135v-67h205v143h135v68zM682 795h-68v-136h-272v-69h340v205zM682 545h-205v-115
h70v47h67v-96h-204v164h-68v-232h340v232zM682 190h-340v-231h340v231zM614 123v-96h-204v96h204zM682 -88h-340v-68h143l-143 -96v-67h340v67h-209l143 96h66v68z" />
    <glyph glyph-name=".null" 
 />
    <glyph glyph-name="nonmarkingreturn" horiz-adv-x="682" 
 />
    <glyph glyph-name="space" unicode=" " horiz-adv-x="409" 
 />
    <glyph glyph-name="exclam" unicode="!" horiz-adv-x="501" 
d="M340 1464h184l-80 -420l-172 -667h-102l90 667zM152 -14q-53 0 -81 34.5t-18 90.5q9 45 43.5 72.5t79.5 27.5q52 0 80 -35t18 -90q-9 -46 -43.5 -73t-78.5 -27z" />
    <glyph glyph-name="quotedbl" unicode="&#x22;" horiz-adv-x="628" 
d="M262 1464h164l-107 -438h-122zM559 1464h164l-107 -438h-122z" />
    <glyph glyph-name="numbersign" unicode="#" horiz-adv-x="1165" 
d="M1151 883h-215l-123 -316h240l-52 -143h-245l-166 -424h-146l164 424h-239l-166 -424h-146l166 424h-196l53 143h201l122 316h-223l51 143h228l151 389h146l-152 -389h240l151 389h148l-152 -389h213zM666 567l122 316h-239l-123 -316h240z" />
    <glyph glyph-name="dollar" unicode="$" horiz-adv-x="1140" 
d="M1063 287q-14 -64 -51.5 -116.5t-88.5 -87.5t-117 -60t-133.5 -37t-140.5 -15l-24 -145h-123l27 149q-101 12 -183 49.5t-140 97.5t-83 148.5t-10 194.5h180q-12 -141 50.5 -222.5t213.5 -101.5l97 496q-151 78 -209 119q-170 122 -165 285q1 28 7 59q31 158 171.5 242
t346.5 90l25 118h123l-27 -127q169 -27 262.5 -144.5t69.5 -303.5h-183q20 235 -180 285l-90 -463q59 -29 90.5 -45.5t80 -44.5t73.5 -49.5t58 -52.5t47 -62.5t27 -71t11.5 -85.5t-12.5 -99zM354 1096q-2 -25 -3.5 -45t7.5 -40t17 -35.5t26 -32t34 -29t40 -27t45.5 -26
t50.5 -25.5l86 432q-77 -3 -137.5 -19.5t-107 -55t-58.5 -97.5zM563 135q31 2 51.5 4t54 7.5t56.5 13t51.5 21t47.5 30.5t35.5 43t23.5 57q21 94 -34 159.5t-196 129.5z" />
    <glyph glyph-name="percent" unicode="%" horiz-adv-x="1667" 
d="M408 633q-83 0 -142.5 33.5t-88 91t-37.5 133.5t10 160q21 110 71.5 197t135.5 141.5t190 54.5q84 0 144 -33.5t88 -91t36.5 -133.5t-10.5 -160q-33 -171 -135.5 -282t-261.5 -111zM1450 1415l-1020 -1415h-145l1018 1415h147zM416 776q96 0 161 75t89 200
q22 116 -9 182.5t-118 66.5q-96 0 -161 -74.5t-89 -199.5q-22 -116 9 -183t118 -67zM1186 -29q-83 0 -142.5 33.5t-88 91t-37.5 133.5t10 160q34 171 137.5 282t259.5 111q84 0 144 -33.5t88 -90.5t36.5 -133t-10.5 -160q-33 -171 -135.5 -282.5t-261.5 -111.5zM1196 115
q94 0 159 74.5t89 199.5q24 116 -8 183t-119 67q-96 0 -161 -74.5t-89 -199.5q-23 -116 9 -183t120 -67z" />
    <glyph glyph-name="ampersand" unicode="&#x26;" horiz-adv-x="1167" 
d="M1090 0h-193l-88 139q-189 -168 -416 -168q-208 0 -305.5 112.5t-62.5 289.5q14 74 50 139t91 117.5t109.5 91t127.5 80.5q-65 106 -91 188t-7 178q12 62 43.5 118.5t80 103.5t119.5 75t154 29q108 1 181 -51.5t98 -131t8 -167.5q-22 -114 -110.5 -198t-262.5 -177
l226 -360q101 126 141 278h164q-67 -246 -221 -422zM690 1329q-85 0 -147.5 -54.5t-75.5 -123.5q-14 -70 7 -134.5t71 -146.5q132 72 198.5 133t83.5 152q14 74 -21.5 124t-115.5 50zM408 135q171 0 321 137l-260 414q-249 -146 -285 -338q-18 -89 40 -151t184 -62z" />
    <glyph glyph-name="quotesingle" unicode="'" horiz-adv-x="331" 
d="M266 1464h164l-106 -438h-123z" />
    <glyph glyph-name="parenleft" unicode="(" horiz-adv-x="600" 
d="M623 1550l147 -8q-162 -214 -269.5 -426.5t-158.5 -478.5q-26 -132 -31.5 -254.5t9 -232t38 -201t60.5 -193.5l-135 8q-64 109 -101.5 241t-47.5 302.5t28 354.5q52 267 175.5 493t285.5 395z" />
    <glyph glyph-name="parenright" unicode=")" horiz-adv-x="612" 
d="M387 1542q47 -81 80.5 -175.5t53 -207.5t16.5 -247t-31 -275q-51 -259 -174.5 -486.5t-284.5 -394.5l-147 8q161 212 268 424.5t158 473.5q27 135 33 259t-8.5 234.5t-38 201.5t-60.5 193z" />
    <glyph glyph-name="asterisk" unicode="*" horiz-adv-x="747" 
d="M797 1210l-209 -67l90 -178l-96 -62l-90 189l-164 -189l-80 62l155 178l-180 67l53 95l185 -64l43 223h110l-43 -223l205 64z" />
    <glyph glyph-name="plus" unicode="+" horiz-adv-x="1142" 
d="M500 586h-383l30 162h383l78 395h164l-78 -395h383l-30 -162h-383l-76 -396h-164z" />
    <glyph glyph-name="comma" unicode="," horiz-adv-x="401" 
d="M111 -8q-54 -21 -87 10.5t-20 101.5q10 52 44 79.5t79 27.5q59 0 82 -47t8 -125q-8 -43 -26 -87t-47.5 -90t-77.5 -80t-107 -44l10 106q50 10 88.5 51t53.5 97z" />
    <glyph glyph-name="hyphen" unicode="-" horiz-adv-x="700" 
d="M90 604h549l-33 -164h-549z" />
    <glyph glyph-name="period" unicode="." horiz-adv-x="399" 
d="M104 -14q-53 0 -80.5 34.5t-17.5 90.5q9 45 43.5 72.5t79.5 27.5q52 0 80 -35t18 -90q-9 -46 -44 -73t-79 -27z" />
    <glyph glyph-name="slash" unicode="/" horiz-adv-x="798" 
d="M971 1464l-852 -1464h-166l852 1464h166z" />
    <glyph glyph-name="zero" unicode="0" horiz-adv-x="1253" 
d="M526 -29q-114 0 -199.5 39t-136 107t-75 163t-22.5 204.5t26 234.5q29 153 84.5 281t137.5 229t198.5 158t255.5 57q114 0 199.5 -39t136 -107.5t75 -163.5t22.5 -205t-26 -235q-23 -121 -62.5 -227t-98.5 -198t-133 -157.5t-172 -103t-210 -37.5zM541 135
q80 0 149.5 31.5t121.5 85.5t94.5 129.5t70.5 158.5t47 179q15 78 21.5 144.5t4.5 132t-19 115.5t-47 89t-81.5 59.5t-120.5 20.5q-100 0 -183 -47.5t-141 -131.5t-97.5 -185t-63.5 -222q-18 -95 -24.5 -172t3.5 -151.5t38.5 -124.5t86 -80.5t140.5 -30.5z" />
    <glyph glyph-name="one" unicode="1" horiz-adv-x="681" 
d="M535 1421h143l-277 -1421h-184l209 1055q-25 -20 -47.5 -34t-51.5 -22.5t-43 -13t-53.5 -6.5t-49.5 -2h-62l14 133q174 0 265.5 79.5t136.5 231.5z" />
    <glyph glyph-name="two" unicode="2" horiz-adv-x="1146" 
d="M756 1444q93 0 173 -30t136.5 -84t80.5 -138t5 -184q-17 -86 -60.5 -160t-103 -126.5t-133.5 -102t-149.5 -87t-152.5 -80t-142 -82t-119 -93t-82 -113.5h778l-33 -164l-999 6q68 356 532 608q220 111 249 128q130 73 181 150q39 59 54 138q5 35 5 69.5t-16 67t-41.5 58
t-72 40.5t-107.5 15q-74 0 -133.5 -20t-100 -52t-71 -79.5t-48 -95.5t-30.5 -107h-182q22 113 67 205t115 163.5t172 110.5t228 39z" />
    <glyph glyph-name="three" unicode="3" horiz-adv-x="1138" 
d="M348 985l-182 12q41 207 181 327t388 120q93 0 175.5 -27.5t142.5 -78t87 -128t9 -170.5q-20 -106 -85.5 -176.5t-180.5 -113.5l-13 -5q261 -76 199 -401q-36 -186 -178 -279.5t-371 -93.5q-262 0 -399 139t-92 375l182 -12q-30 -157 49.5 -247.5t259.5 -90.5
q72 0 129.5 11.5t96 31t66 48t43 59t24.5 67.5q18 69 10.5 120.5t-28.5 86.5t-57 57t-75 31.5t-82 9.5h-155l30 164h140q114 0 198.5 57.5t106.5 165.5q20 101 -44.5 168.5t-199.5 67.5q-82 0 -145 -18t-101.5 -45t-66 -68.5t-40.5 -78.5t-22 -85z" />
    <glyph glyph-name="four" unicode="4" horiz-adv-x="1159" 
d="M815 0h-184l65 332h-682l31 164l860 919h187l-181 -919h195l-31 -164h-194zM858 1149l-612 -653h481z" />
    <glyph glyph-name="five" unicode="5" horiz-adv-x="1103" 
d="M1124 1251h-626l-166 -422q137 121 348 121q132 0 226 -63.5t131.5 -173t11.5 -242.5q-28 -146 -116.5 -261t-214 -177t-265.5 -62q-119 0 -211 37t-144 98t-73 137t-7 158h181q-4 -55 6.5 -100t38 -84t82.5 -60.5t133 -21.5q150 0 260 91.5t145 248.5
q33 150 -34.5 230.5t-204.5 80.5q-210 0 -344 -137h-199l295 766h780z" />
    <glyph glyph-name="six" unicode="6" horiz-adv-x="1175" 
d="M1163 1063h-180q6 105 -47 161t-166 56q-85 0 -155.5 -31.5t-119.5 -82t-88 -125t-63 -149t-43 -165.5q71 94 178.5 145.5t227.5 51.5q208 0 312.5 -132.5t63.5 -347.5q-26 -129 -103 -235.5t-201 -172t-271 -65.5q-541 0 -393 750q68 351 238 537t429 186
q97 0 174.5 -32t124.5 -85.5t68.5 -121.5t13.5 -142zM678 760q-154 0 -268 -88.5t-144 -222.5q-30 -138 39 -226t217 -88t248.5 87t130.5 235q27 144 -35 223.5t-188 79.5z" />
    <glyph glyph-name="seven" unicode="7" horiz-adv-x="1050" 
d="M203 1415h981l-25 -147q-186 -134 -361 -345.5t-302 -456.5t-170 -466h-193q33 172 123 364.5t206 358t241.5 304t238.5 224.5h-772z" />
    <glyph glyph-name="eight" unicode="8" horiz-adv-x="1177" 
d="M39 410q13 68 44.5 124.5t77.5 96.5t93.5 68.5t107.5 52.5l11 4q-175 103 -133 313q33 176 176 275.5t346 99.5q209 0 317.5 -107.5t73.5 -292.5q-38 -190 -242 -292l-12 -4q244 -117 197 -363q-26 -135 -113 -230t-211.5 -139.5t-277.5 -44.5q-116 0 -208.5 28t-155 82
t-87 138t-4.5 191zM664 834q127 0 205 54.5t100 160.5q23 119 -44.5 175t-195.5 56t-206.5 -55.5t-98.5 -159.5q-13 -63 -0.5 -108.5t47.5 -72t82.5 -38.5t110.5 -12zM528 135q160 0 261 69t124 191q27 135 -57.5 205t-245.5 70t-261 -69t-124 -189q-28 -137 56 -207
t247 -70z" />
    <glyph glyph-name="nine" unicode="9" horiz-adv-x="1189" 
d="M735 1444q541 0 393 -750q-68 -351 -238 -537t-429 -186q-97 0 -174.5 32t-124.5 85.5t-68.5 121.5t-13.5 142h180q-6 -105 47 -161t166 -56q85 0 155.5 31.5t119.5 82t88 125t63 149t43 165.5q-71 -94 -178 -145t-227 -51q-208 0 -313 132.5t-64 346.5q26 129 103 235.5
t201 172t271 65.5zM977 967q30 138 -39 225.5t-217 87.5t-248.5 -87t-130.5 -235q-27 -144 35 -223.5t188 -79.5q154 0 268 88.5t144 223.5z" />
    <glyph glyph-name="colon" unicode=":" horiz-adv-x="407" 
d="M227 610q-52 0 -80 34.5t-18 90.5q9 45 43.5 73t79.5 28q52 0 80 -35t18 -90q-9 -46 -43.5 -73.5t-79.5 -27.5zM106 -14q-53 0 -80.5 34.5t-17.5 90.5q9 45 43.5 72.5t79.5 27.5q52 0 80 -35t18 -90q-9 -46 -44 -73t-79 -27z" />
    <glyph glyph-name="semicolon" unicode=";" horiz-adv-x="409" 
d="M227 610q-52 0 -80 34.5t-18 90.5q9 45 43.5 73t79.5 28q52 0 80 -35t18 -90q-9 -46 -43.5 -73.5t-79.5 -27.5zM113 -8q-54 -21 -87 10.5t-20 101.5q10 52 44 79.5t79 27.5q59 0 82 -47t8 -125q-8 -43 -26 -87t-47.5 -90t-77.5 -80t-107 -44l10 106q50 10 88.5 51
t53.5 97z" />
    <glyph glyph-name="less" unicode="&#x3c;" horiz-adv-x="1042" 
d="M874 199l-768 346l35 184l901 348l-30 -164l-754 -274l-2 -4l649 -273z" />
    <glyph glyph-name="equal" unicode="=" horiz-adv-x="1140" 
d="M176 887h930l-33 -164h-930zM113 561h929l-32 -164h-930z" />
    <glyph glyph-name="greater" unicode="&#x3e;" horiz-adv-x="1042" 
d="M45 199l31 163l751 273l2 4l-647 274l31 164l766 -348l-35 -184z" />
    <glyph glyph-name="question" unicode="?" horiz-adv-x="1026" 
d="M303 995h-182q44 230 183 364t378 134q195 0 311.5 -110.5t83.5 -276.5q-6 -32 -18.5 -62t-25 -52.5t-35.5 -47.5t-39 -40.5t-47 -38t-47 -33.5t-51.5 -34t-49.5 -32q-56 -37 -91.5 -67.5t-70.5 -75t-58.5 -103.5t-39.5 -139h-180q33 175 97 278.5t185 188.5q26 19 71 45
t75 45.5t63 47t54 63.5t30 81q17 86 -48 142.5t-181 56.5q-300 0 -367 -334zM365 -14q-53 0 -81 34.5t-18 90.5q9 45 43.5 72.5t79.5 27.5q52 0 80 -35t18 -90q-9 -46 -43.5 -73t-78.5 -27z" />
    <glyph glyph-name="at" unicode="@" horiz-adv-x="1769" 
d="M1290 162q-96 0 -150 44.5t-79 127.5l-8 -10q-125 -154 -318 -154q-150 0 -227.5 118t-38.5 314q39 203 171.5 330t289.5 127q103 0 176.5 -54.5t87.5 -130.5l6 7l53 163h146l-166 -520q-74 -219 78 -219q98 0 174 93.5t110 269.5q37 190 -15.5 337.5t-186.5 229.5
t-332 82q-127 0 -249 -40t-221.5 -109.5t-180.5 -161t-134 -198t-75 -216.5q-30 -149 -0.5 -271.5t102.5 -210.5t189.5 -136t259.5 -48q215 0 381 64l38 -121q-181 -86 -428 -86q-181 0 -325 58t-235 166.5t-125.5 262.5t3.5 346q33 170 126 325t225 269.5t304 182t353 67.5
q124 0 231 -29t186 -81.5t138.5 -126t89.5 -163.5t37.5 -194t-16.5 -217q-21 -110 -61 -197t-86 -140t-100.5 -88t-102.5 -48.5t-95 -13.5zM772 313q128 0 221.5 98t122.5 246q25 126 -24 192t-144 66q-130 0 -221.5 -97.5t-120.5 -246.5q-23 -118 17.5 -188t148.5 -70z" />
    <glyph glyph-name="A" unicode="A" horiz-adv-x="1327" 
d="M958 367h-645l-200 -367h-193l825 1464h205l254 -1464h-188zM406 530h524l-111 764h-4z" />
    <glyph glyph-name="B" unicode="B" horiz-adv-x="1310" 
d="M1311 1083q-23 -121 -95.5 -189t-181.5 -103l-12 -3q119 -22 183 -118.5t34 -255.5q-38 -196 -190 -305t-381 -109h-637l284 1464h586q224 0 334 -103t76 -278zM381 852h430q76 0 133 16.5t93.5 49t58 73.5t32.5 96q20 99 -29 156t-171 57h-459zM350 688l-102 -524h461
q294 0 350 274q22 115 -31 182.5t-168 67.5h-510z" />
    <glyph glyph-name="C" unicode="C" horiz-adv-x="1415" 
d="M1274 975q0 50 -8.5 95.5t-33.5 94.5t-64 84t-105.5 57.5t-153.5 22.5q-102 0 -193.5 -34.5t-160.5 -93t-124 -137t-90 -165t-52 -178.5q-15 -74 -16.5 -144.5t10 -136.5t41 -121t73.5 -96.5t111 -64.5t151 -23q111 0 205 35.5t156.5 94t103 123.5t60.5 134h182
q-72 -248 -265.5 -399.5t-455.5 -151.5q-200 0 -337.5 99.5t-189.5 275.5t-9 399q42 215 159 385.5t288 266.5t366 96q133 0 239 -41.5t171.5 -113t97 -165t24.5 -198.5h-180z" />
    <glyph glyph-name="D" unicode="D" horiz-adv-x="1386" 
d="M31 0l284 1464h527q305 0 442.5 -195.5t69.5 -549.5q-67 -346 -274.5 -532.5t-512.5 -186.5h-536zM469 1300l-221 -1136h342q108 0 198 32.5t152.5 86.5t110.5 130.5t76.5 156.5t46.5 173q18 90 20.5 166.5t-15 150.5t-58 125.5t-117.5 83t-185 31.5h-350z" />
    <glyph glyph-name="E" unicode="E" horiz-adv-x="1267" 
d="M379 840h751l-30 -164h-752l-100 -512h874l-32 -164h-1059l284 1464h1035l-31 -164h-850z" />
    <glyph glyph-name="F" unicode="F" horiz-adv-x="1185" 
d="M377 825h653l-33 -163h-653l-129 -662h-184l284 1464h994l-31 -164h-809z" />
    <glyph glyph-name="G" unicode="G" horiz-adv-x="1503" 
d="M1278 1028q-1 151 -95 226t-249 75q-108 0 -204.5 -36.5t-167.5 -96.5t-128 -139.5t-91.5 -164t-51.5 -171.5q-17 -85 -17.5 -165t20.5 -157.5t63.5 -135t118.5 -93t179 -35.5q127 0 247 59.5t206.5 168t112.5 241.5l-480 -6l33 164h662l-150 -762h-121l-18 207l-6 -4
q-108 -118 -227.5 -175t-272.5 -57q-207 0 -343 100t-183 274.5t-4 399.5q42 216 159 385.5t293.5 266t382.5 96.5q258 0 386.5 -129.5t125.5 -347.5z" />
    <glyph glyph-name="H" unicode="H" horiz-adv-x="1419" 
d="M315 1464h185l-121 -622h782l121 622h184l-284 -1464h-185l133 678h-782l-133 -678h-184z" />
    <glyph glyph-name="I" unicode="I" horiz-adv-x="460" 
d="M319 1464h185l-285 -1464h-184z" />
    <glyph glyph-name="J" unicode="J" horiz-adv-x="1003" 
d="M870 440q-14 -75 -38.5 -140.5t-66.5 -127t-97 -105t-134 -70t-174 -26.5q-81 0 -144 19t-103 53.5t-66 79t-35 100t-7.5 112t13.5 118.5l9 34h184l-10 -47q-11 -60 -15 -100.5t2 -82.5t26 -66.5t60 -40t101 -15.5q63 0 112.5 16.5t82 44t56.5 70t37.5 86t24.5 101.5
l197 1011h184z" />
    <glyph glyph-name="K" unicode="K" horiz-adv-x="1314" 
d="M315 1464h185l-154 -784l889 784h227l-694 -608l449 -856h-213l-381 729l-318 -276l-90 -453h-184z" />
    <glyph glyph-name="L" unicode="L" horiz-adv-x="1138" 
d="M315 1464h185l-252 -1300h768l-33 -164h-952z" />
    <glyph glyph-name="M" unicode="M" horiz-adv-x="1693" 
d="M31 0l284 1464h252l221 -1216h5l696 1216h252l-285 -1464h-184l235 1204h-4l-676 -1204h-163l-209 1204h-4l-236 -1204h-184z" />
    <glyph glyph-name="N" unicode="N" horiz-adv-x="1413" 
d="M31 0l284 1464h226l495 -1206h6l234 1206h184l-284 -1464h-224l-497 1202h-4l-236 -1202h-184z" />
    <glyph glyph-name="O" unicode="O" horiz-adv-x="1556" 
d="M678 -29q-128 0 -234.5 37.5t-180.5 106.5t-120.5 165t-55 213t14.5 252q42 216 162.5 386t300.5 266t389 96q214 0 361 -99.5t203.5 -275t13.5 -397.5q-42 -216 -162.5 -386t-301.5 -267t-390 -97zM692 135q109 0 205.5 32.5t170.5 89.5t132.5 134.5t95.5 166.5t56 187
q16 94 16 179.5t-29 159.5t-77.5 128.5t-130.5 85.5t-189 31q-135 0 -250.5 -49.5t-196.5 -134.5t-135 -192.5t-77 -231.5q-15 -78 -15.5 -150.5t14 -138.5t47.5 -120t81.5 -93.5t120.5 -61.5t161 -22z" />
    <glyph glyph-name="P" unicode="P" horiz-adv-x="1226" 
d="M31 0l284 1464h578q103 0 183 -24.5t137.5 -77t76 -136t-1.5 -200.5q-22 -110 -73 -191t-125 -129t-161.5 -71t-191.5 -23h-401l-121 -612h-184zM469 1300l-102 -524h413q276 0 328 275q25 129 -27.5 189t-189.5 60h-422z" />
    <glyph glyph-name="Q" unicode="Q" horiz-adv-x="1542" 
d="M1399 43l-137 -117l-150 180q-204 -135 -457 -135q-213 0 -359.5 100t-202.5 276t-13 398q42 216 162.5 386t300.5 266t389 96q129 0 236 -37.5t180.5 -106t120 -164.5t55 -212.5t-14.5 -251.5q-57 -298 -260 -498zM670 135q186 0 342 101l-154 188l135 117l156 -187
q134 158 180 391q16 94 16 179.5t-28.5 159.5t-77 128.5t-130.5 85.5t-189 31q-135 0 -251 -49.5t-197 -134.5t-135 -193t-77 -231q-15 -78 -15.5 -150.5t14 -138.5t47.5 -120t82 -93.5t121 -61.5t161 -22z" />
    <glyph glyph-name="R" unicode="R" horiz-adv-x="1257" 
d="M31 0l284 1464h590q219 0 331.5 -115.5t74.5 -312.5q-59 -293 -326 -358l-12 -4q64 -13 103 -55t52 -100t14 -125t-7.5 -132.5t-16 -120t-7 -90.5t14.5 -41l2 -10l-192 4q-10 11 -7.5 36.5t6.5 62.5t13.5 80.5t13 90.5t5 92.5t-10.5 86.5t-33.5 72t-64 49t-102.5 18h-424
l-117 -592h-184zM469 1300l-107 -544h363q54 0 96 4.5t95 21t91.5 46t71 83.5t47.5 129q8 40 8 74t-6.5 59t-20.5 44.5t-29.5 33t-39.5 23t-45 14.5t-50 8t-51 3.5t-52 0.5h-371z" />
    <glyph glyph-name="S" unicode="S" horiz-adv-x="1255" 
d="M700 852q60 -23 101.5 -40.5t91.5 -41t82.5 -43.5t68.5 -47t57 -54t40 -61.5t25.5 -72.5t6 -84t-11.5 -99q-33 -159 -175.5 -248.5t-381.5 -89.5q-132 0 -245 35.5t-193.5 99.5t-119.5 162.5t-23 216.5h180q-14 -158 91 -254t324 -96q163 0 252 48.5t111 150.5
q7 33 7.5 60.5t-6.5 53t-20 47t-36 43t-51.5 40t-69.5 39t-86.5 39.5t-106.5 42q-169 64 -241 108q-183 112 -174 295q2 29 8 60q21 109 98.5 185t190.5 111.5t254 35.5q159 0 275.5 -53t174.5 -157.5t41 -246.5h-180q9 147 -72 220t-252 73q-140 0 -235 -41.5t-113 -130.5
q-12 -63 2.5 -108.5t58.5 -78t89 -53.5t122 -50q27 -10 41 -15z" />
    <glyph glyph-name="T" unicode="T" horiz-adv-x="1226" 
d="M418 0l254 1300h-488l31 164h1159l-31 -164h-487l-254 -1300h-184z" />
    <glyph glyph-name="U" unicode="U" horiz-adv-x="1343" 
d="M1223 481q-45 -235 -209 -372.5t-443 -137.5q-116 0 -206 25.5t-146.5 72.5t-90 112t-37.5 144t11 169l189 970h184l-190 -983q-34 -178 39.5 -262t261.5 -84q386 0 454 359l189 970h184z" />
    <glyph glyph-name="V" unicode="V" horiz-adv-x="1243" 
d="M186 1464h203l158 -1286l659 1286h207l-797 -1464h-202z" />
    <glyph glyph-name="W" unicode="W" horiz-adv-x="1853" 
d="M195 1464h192l45 -1200h4l561 1200h205l94 -1200h4l512 1200h197l-647 -1464h-205l-94 1255h-4l-582 -1255h-205z" />
    <glyph glyph-name="X" unicode="X" horiz-adv-x="1202" 
d="M547 748l-324 716h203l246 -585l479 585h207l-604 -712l352 -752h-223l-256 616l-498 -616h-227z" />
    <glyph glyph-name="Y" unicode="Y" horiz-adv-x="1236" 
d="M168 1464h197l282 -716h4l568 716h200l-702 -864l-119 -600h-184l118 600z" />
    <glyph glyph-name="Z" unicode="Z" horiz-adv-x="1249" 
d="M283 1464h1077l-29 -164l-1114 -1132l-2 -4h913l-32 -164h-1139l31 164l1114 1132l2 4h-852z" />
    <glyph glyph-name="bracketleft" unicode="[" horiz-adv-x="600" 
d="M352 1546h387l-30 -164h-203l-285 -1458h203l-31 -164h-387z" />
    <glyph glyph-name="backslash" unicode="\" horiz-adv-x="753" 
d="M195 1464h161l283 -1464h-162z" />
    <glyph glyph-name="bracketright" unicode="]" horiz-adv-x="606" 
d="M649 1546l-346 -1786h-387l31 164h203l284 1458h-203l31 164h387z" />
    <glyph glyph-name="asciicircum" unicode="^" horiz-adv-x="927" 
d="M557 1464h164l248 -563h-178l-179 414h-4l-334 -414h-188z" />
    <glyph glyph-name="underscore" unicode="_" horiz-adv-x="837" 
d="M-139 -176h844l-33 -164h-844z" />
    <glyph glyph-name="grave" unicode="`" horiz-adv-x="960" 
d="M641 1485l37 -260h-129l-100 260h192z" />
    <glyph glyph-name="a" unicode="a" horiz-adv-x="1042" 
d="M954 737l-98 -508q-8 -41 -7 -67t24.5 -36.5t76.5 -4.5l-22 -111q-52 -20 -92 -20q-76 0 -115 31t-43 110q-147 -160 -385 -160q-161 0 -240 87.5t-51 234.5q9 46 28 84t41.5 66t60.5 52t71.5 40t89 33t98 27t113.5 26q65 14 101.5 23.5t76.5 24t60.5 30t36.5 38.5t22 54
q12 65 -25 102t-151 37q-150 0 -222.5 -49.5t-103.5 -165.5h-162q39 168 161 263t337 95q80 0 143 -17.5t110.5 -55.5t65.5 -105t0 -158zM727 410l37 163q-42 -36 -252 -79q-168 -34 -250.5 -81t-97.5 -128q-15 -80 27.5 -125t127.5 -45q155 0 265 75.5t143 219.5z" />
    <glyph glyph-name="b" unicode="b" horiz-adv-x="1132" 
d="M705 1073q100 0 180 -38.5t130.5 -111.5t68 -177.5t-8.5 -235.5q-24 -124 -80 -226.5t-131.5 -170.5t-167 -105t-188.5 -37q-210 0 -301 162l-8 -4l-27 -129h-164l285 1464h164l-109 -555l4 4q139 160 353 160zM502 115q105 0 194 62t143.5 155.5t75.5 202.5
q10 60 10.5 117.5t-16.5 107.5t-45.5 88t-76.5 60t-109 22q-148 0 -258.5 -115t-147.5 -305q-35 -181 26.5 -288t203.5 -107z" />
    <glyph glyph-name="c" unicode="c" horiz-adv-x="1058" 
d="M883 662q5 51 -3.5 96t-33.5 85t-76.5 63.5t-124.5 23.5q-91 0 -167.5 -35.5t-129 -95t-86.5 -131t-49 -150.5q-9 -58 -11 -115t15 -109t46 -92t82 -63.5t124 -23.5q77 0 141.5 25t106.5 65.5t68.5 84t39.5 89.5h164q-46 -179 -193.5 -293.5t-336.5 -114.5
q-231 0 -343.5 156.5t-62.5 407.5q47 242 212 390t390 148q193 0 297.5 -116t89.5 -295h-159z" />
    <glyph glyph-name="d" unicode="d" horiz-adv-x="1132" 
d="M1040 1464h164l-284 -1464h-164l26 129l-2 -4q-150 -154 -352 -154q-100 0 -180 39t-131 112t-68.5 177.5t8.5 235.5q32 165 118.5 288.5t203 186.5t246.5 63q217 0 301 -168l8 4zM455 115q148 0 258 115t147 305q35 181 -26 288t-203 107q-105 0 -194.5 -62t-144 -155.5
t-75.5 -202.5q-10 -60 -10.5 -117.5t16.5 -107.5t45.5 -88t77 -60t109.5 -22z" />
    <glyph glyph-name="e" unicode="e" horiz-adv-x="1083" 
d="M465 115q75 0 139.5 22.5t106.5 58t67.5 68t40.5 64.5h174q-67 -162 -206 -259.5t-326 -97.5q-238 0 -349 160t-61 414q50 253 209.5 390.5t388.5 137.5q245 0 340.5 -158t38.5 -442h-825q-19 -97 1 -176.5t87 -130.5t174 -51zM639 930q-148 0 -265.5 -92.5
t-142.5 -221.5h664q26 140 -40.5 227t-215.5 87z" />
    <glyph glyph-name="f" unicode="f" horiz-adv-x="600" 
d="M711 1321q-107 8 -160 -20.5t-70 -114.5l-26 -142h198l-28 -143h-199l-176 -901h-164l176 901h-145l28 143h146l33 170q29 149 101 206t185 57q53 0 119 -15z" />
    <glyph glyph-name="g" unicode="g" horiz-adv-x="1124" 
d="M952 1044h164l-194 -993q-39 -206 -174.5 -309.5t-350.5 -103.5q-209 0 -321.5 95t-104.5 228h160q0 -180 258 -180q153 0 248.5 71t124.5 214l31 151l-5 -4q-142 -160 -356 -160q-100 0 -179 32.5t-132.5 97.5t-70.5 163t7 229q24 123 78.5 219.5t129 156.5t162.5 91
t185 31q215 0 306 -162l8 4zM461 197q154 0 258.5 96t140.5 282q35 176 -28 265.5t-209 89.5q-160 0 -267 -101.5t-139 -265.5q-31 -157 31.5 -261.5t212.5 -104.5z" />
    <glyph glyph-name="h" unicode="h" horiz-adv-x="1073" 
d="M719 1073q75 0 134.5 -21t101.5 -64t56.5 -109t-1.5 -156l-142 -723h-163l135 694q22 109 -18 172.5t-154 63.5q-140 0 -244 -81t-127 -204l-127 -645h-164l285 1464h164l-107 -544l4 4q60 64 153.5 106.5t213.5 42.5z" />
    <glyph glyph-name="i" unicode="i" horiz-adv-x="423" 
d="M362 1247q-42 0 -71 31t-21 80q8 40 42 63t69 23q42 0 71 -31t19 -80q-7 -40 -40.5 -63t-68.5 -23zM231 1044h164l-205 -1044h-163z" />
    <glyph glyph-name="j" unicode="j" horiz-adv-x="413" 
d="M350 1247q-42 0 -71 31t-21 80q8 40 42 63t69 23q42 0 71 -31t19 -80q-7 -40 -40.5 -63t-68.5 -23zM219 1044h164l-219 -1122q-26 -137 -78.5 -205.5t-148.5 -68.5q-69 0 -152 24l12 121q106 -8 145.5 15t57.5 110z" />
    <glyph glyph-name="k" unicode="k" horiz-adv-x="991" 
d="M291 1464h164l-170 -868l567 448h207l-484 -387l322 -657h-192l-261 561l-192 -149l-82 -412h-164z" />
    <glyph glyph-name="l" unicode="l" horiz-adv-x="395" 
d="M297 1464h164l-285 -1464h-164z" />
    <glyph glyph-name="m" unicode="m" horiz-adv-x="1615" 
d="M1298 1073q159 0 223 -91.5t31 -258.5l-141 -723h-164l135 694q12 69 12.5 121.5t-35.5 83.5t-112 31q-124 0 -214.5 -80.5t-114.5 -204.5l-127 -645h-164l135 694q12 69 12.5 121.5t-35.5 83.5t-112 31q-124 0 -215 -80.5t-115 -204.5l-127 -645h-164l205 1044h164
l-27 -124l4 4q141 149 326 149q219 0 248 -186l6 10q165 176 366 176z" />
    <glyph glyph-name="n" unicode="n" horiz-adv-x="1073" 
d="M719 1073q75 0 134.5 -21t101.5 -64t56.5 -109t-1.5 -156l-142 -723h-163l135 694q22 109 -18 172.5t-154 63.5q-140 0 -244 -81t-127 -204l-127 -645h-164l205 1044h164l-27 -124l4 4q60 64 153.5 106.5t213.5 42.5z" />
    <glyph glyph-name="o" unicode="o" horiz-adv-x="1120" 
d="M444 -29q-233 0 -338 148t-59 391q48 252 219.5 407.5t411.5 155.5q232 0 336.5 -147.5t58.5 -390.5q-48 -252 -219 -408t-410 -156zM477 115q164 0 275.5 111t152.5 284q22 86 14.5 162.5t-36 133.5t-90 90.5t-148.5 33.5q-165 0 -277 -111t-153 -284
q-22 -86 -14.5 -162.5t36.5 -133.5t91 -90.5t149 -33.5z" />
    <glyph glyph-name="p" unicode="p" horiz-adv-x="1134" 
d="M711 1073q98 0 177 -38.5t129.5 -111.5t68 -177.5t-8.5 -235.5q-32 -164 -118 -288.5t-201.5 -187.5t-243.5 -63q-221 0 -305 168l-8 -4l-95 -487h-163l272 1396h164l-27 -129l2 5q149 153 357 153zM504 115q105 0 194.5 62t144 155.5t75.5 202.5q10 60 10.5 117.5
t-16.5 107.5t-45.5 88t-77 60t-109.5 22q-148 0 -258.5 -115t-147.5 -305q-35 -181 26.5 -288t203.5 -107z" />
    <glyph glyph-name="q" unicode="q" horiz-adv-x="1134" 
d="M961 1044h163l-272 -1396h-164l96 487l-4 -4q-139 -160 -356 -160q-98 0 -177.5 39t-130 112t-68 177.5t8.5 235.5q32 164 118.5 288t202 187t243.5 63q214 0 305 -162l8 4zM455 115q148 0 258 115t147 305q35 181 -26 288t-203 107q-105 0 -194.5 -62t-144 -155.5
t-75.5 -202.5q-10 -60 -10.5 -117.5t16.5 -107.5t45.5 -88t77 -60t109.5 -22z" />
    <glyph glyph-name="r" unicode="r" horiz-adv-x="700" 
d="M664 1073q58 0 98 -6l-27 -164q-163 27 -293 -77t-163 -275l-109 -551h-164l205 1044h164l-43 -206l6 6q66 111 144.5 170t181.5 59z" />
    <glyph glyph-name="s" unicode="s" horiz-adv-x="970" 
d="M530 612q32 -9 57.5 -17.5t56 -19.5t54 -23t49.5 -27t44.5 -32t36.5 -37.5t28.5 -45t17.5 -52t6.5 -60t-8.5 -69.5q-28 -131 -137 -194.5t-264 -63.5q-222 0 -347.5 103.5t-125.5 267.5h162q0 -98 77.5 -162.5t243.5 -64.5q102 0 160.5 36.5t69.5 96.5q4 21 4.5 40t-4 35
t-10.5 29.5t-18 25.5t-23.5 21.5t-30 18.5t-34 16t-39 15t-42 13.5t-45.5 12.5q-57 16 -99 30.5t-98.5 46t-89.5 69.5t-51 98.5t-4 134.5q20 103 122 161t267 58q189 0 296.5 -93.5t107.5 -227.5h-160q0 71 -61 124.5t-193 53.5q-97 0 -155 -29.5t-66 -81.5
q-7 -47 6.5 -80.5t50.5 -56t74.5 -36t101.5 -31.5z" />
    <glyph glyph-name="t" unicode="t" horiz-adv-x="604" 
d="M639 901h-205l-123 -635q-18 -85 22 -108t154 -15l-18 -145q-49 -10 -121 -10q-256 0 -203 274l125 639h-153l28 143h154l68 349h163l-67 -349h205z" />
    <glyph glyph-name="u" unicode="u" horiz-adv-x="1073" 
d="M901 1044h164l-205 -1044h-164l27 125l-4 -4q-61 -64 -154 -107t-213 -43q-75 0 -134.5 21t-101.5 64.5t-56.5 109.5t1.5 156l142 722h164l-136 -694q-22 -108 18 -171.5t154 -63.5q140 0 244 80.5t127 203.5z" />
    <glyph glyph-name="v" unicode="v" horiz-adv-x="944" 
d="M98 1044h176l119 -880l461 880h180l-577 -1044h-187z" />
    <glyph glyph-name="w" unicode="w" horiz-adv-x="1503" 
d="M104 1044h179l69 -866h4l402 866h174l67 -866h5l405 866h182l-536 -1044h-174l-68 862h-4l-399 -862h-174z" />
    <glyph glyph-name="x" unicode="x" horiz-adv-x="1024" 
d="M139 1044h193l192 -399h4l349 399h196l-469 -509l301 -535h-192l-224 426h-4l-389 -426h-196l508 535z" />
    <glyph glyph-name="y" unicode="y" horiz-adv-x="1001" 
d="M1092 1044l-666 -1136q-65 -109 -101 -150q-98 -109 -233 -110q-67 0 -141 22l20 121h19q71 -6 122.5 7.5t98.5 58.5q48 39 80 102.5t20 132.5l-213 952h183l153 -851h4l467 851h187z" />
    <glyph glyph-name="z" unicode="z" horiz-adv-x="940" 
d="M-25 123l742 774l2 4h-555l29 143h786l-18 -98l-764 -799l-2 -4h630l-28 -143h-844z" />
    <glyph glyph-name="braceleft" unicode="{" horiz-adv-x="602" 
d="M84 735q69 -1 107 53.5t55 145.5l43 221q20 103 47 173t59 113t79.5 66.5t98 31t125.5 7.5h43l-30 -164h-35q-78 0 -127 -44.5t-70 -151.5l-61 -318q-16 -82 -55.5 -131.5t-102.5 -83.5l-10 -4q111 -75 82 -225l-60 -307q-22 -113 5 -153t106 -40h43l-31 -164h-35
q-74 0 -123 10t-88 36t-55.5 72.5t-16 119t20.5 174.5l41 211q9 53 11 95t-20 67.5t-69 25.5z" />
    <glyph glyph-name="bar" unicode="|" horiz-adv-x="102" 
d="M190 1524h144l-346 -1786h-144z" />
    <glyph glyph-name="braceright" unicode="}" horiz-adv-x="604" 
d="M594 735l-23 -164q-123 0 -161 -200l-41 -211q-20 -103 -47.5 -174t-60 -115.5t-80 -69t-99 -33t-125.5 -8.5h-43l31 164h35q78 0 127 46t71 159l60 307q16 84 55 133.5t102 83.5l11 4q-111 75 -82 224l61 317q21 107 -7 145.5t-106 38.5h-43l31 164h35q74 0 123 -9
t88.5 -34t56 -69.5t16.5 -116.5t-20 -174l-43 -221q-9 -53 -11 -95t20 -67.5t69 -24.5z" />
    <glyph glyph-name="asciitilde" unicode="~" horiz-adv-x="821" 
d="M80 559q22 107 80 171.5t139 64.5q42 0 81 -13.5t62.5 -30.5t49 -30.5t45.5 -13.5q44 0 71 30.5t33 63.5l141 -13q-21 -106 -79 -170.5t-138 -64.5q-54 0 -100 22t-79.5 44t-57.5 22q-44 0 -71.5 -30t-35.5 -64z" />
    <glyph glyph-name="exclamdown" unicode="&#xa1;" horiz-adv-x="493" 
d="M365 1212q52 0 80 -34.5t18 -90.5q-9 -45 -43.5 -72.5t-79.5 -27.5q-52 0 -80 35t-18 90q9 46 43.5 73t79.5 27zM-2 -266l82 420l170 667h102l-88 -667l-82 -420h-184z" />
    <glyph glyph-name="cent" unicode="&#xa2;" horiz-adv-x="1056" 
d="M1040 662h-159q5 48 -2 90t-28 81t-64 64t-105 31l-156 -809q120 17 195.5 93t101.5 167h164q-43 -169 -178 -281.5t-311 -124.5l-29 -147h-123l29 151q-192 28 -280 179.5t-44 378.5q44 223 189.5 367.5t347.5 166.5l26 141h123l-26 -139q166 -18 254.5 -131.5
t74.5 -277.5zM211 518q-15 -64 -10.5 -129.5t23.5 -120t65 -94.5t114 -53l156 801q-141 -29 -230 -143t-118 -261z" />
    <glyph glyph-name="sterling" unicode="&#xa3;" horiz-adv-x="1099" 
d="M1141 956h-183q30 152 -28 232t-205 80q-135 0 -218 -71t-106 -183q-6 -29 -7.5 -58.5t-1.5 -48t5.5 -49t7 -38t10.5 -41.5l9 -34h321l-16 -163h-287q0 -30 -6 -60q-20 -100 -74 -185.5t-131 -141.5q100 49 179 49q49 0 92.5 -14.5t70 -31.5t63.5 -31.5t75 -14.5
q67 0 123.5 24t128.5 72l57 -158q-61 -40 -94.5 -59.5t-93 -39.5t-117.5 -20q-61 0 -117 19.5t-91 43t-81 43t-90 19.5q-63 0 -118.5 -21.5t-154.5 -78.5l-79 143q96 56 171.5 168t102.5 250q4 8 4 25h-170l33 163h115q-1 5 -6.5 28t-7.5 31t-6.5 30.5t-5.5 35t-2.5 34.5
t-0.5 40t3 41t7 47q11 52 33.5 104t65 106.5t98 95.5t138.5 67.5t181 26.5q99 0 177 -24.5t126.5 -68t78.5 -103.5t33 -130.5t-11 -149.5z" />
    <glyph glyph-name="currency" unicode="&#xa4;" horiz-adv-x="829" 
d="M842 692q-23 -130 -113 -229l107 -129l-103 -88l-104 127q-115 -76 -252 -76q-140 0 -230 84l-159 -135l-74 86l162 137q-53 101 -27 248q27 137 117 233l-107 129l101 86l106 -127q119 74 250 74q137 0 227 -84l160 135l78 -86l-166 -137q55 -105 27 -248zM209 692
q-25 -126 25 -189t151 -63q108 0 190 71t107 206q25 126 -24 189t-150 63q-108 0 -190 -71t-109 -206z" />
    <glyph glyph-name="yen" unicode="&#xa5;" horiz-adv-x="1144" 
d="M1294 1405l-589 -780h331l-24 -123h-359l-22 -117h358l-24 -123h-359l-51 -262h-184l51 262h-359l25 123h358l23 117h-358l24 123h336l-287 780h195l223 -676h4l486 676h202z" />
    <glyph glyph-name="brokenbar" unicode="&#xa6;" horiz-adv-x="110" 
d="M154 1524h143l-143 -738h-144zM-45 502h143l-147 -764h-144z" />
    <glyph glyph-name="section" unicode="&#xa7;" horiz-adv-x="1183" 
d="M1114 438q-43 -214 -293 -266q62 -112 39 -242q-25 -127 -136 -207.5t-298 -80.5q-103 0 -177 28.5t-111.5 78.5t-50 110.5t-1.5 130.5l160 -13q-6 -76 4 -106q28 -86 184 -86q235 0 264 158q6 33 -4.5 66.5t-29.5 59.5t-52.5 56.5t-60 50t-66 47t-57.5 41.5
q-22 14 -64 41q-35 22 -52.5 33.5t-48 32t-45.5 33t-38.5 32.5t-35 35.5t-27 36.5t-21.5 41t-11.5 43.5t-4.5 49.5t6 54q43 210 297 265q-67 110 -41 243q25 127 135.5 208t296.5 81q104 0 178 -28.5t111.5 -78.5t50.5 -110.5t2 -130.5l-162 12q2 22 2.5 28t1.5 28t-1.5 30
t-7.5 26.5t-14 27t-23.5 21t-34.5 18t-48 10t-63 4.5q-233 0 -262 -158q-6 -28 0 -56t24 -54.5t37 -48.5t50.5 -47t53.5 -41.5t56 -40t49 -34.5q166 -106 224 -158q123 -108 121 -227q-1 -24 -5 -47zM719 254q203 37 231 188q12 60 -35.5 108t-207.5 158q-148 102 -246 173
q-102 -19 -149.5 -67.5t-61.5 -121.5q-13 -68 60 -141q55 -54 246 -185q11 -8 36 -24z" />
    <glyph glyph-name="dieresis" unicode="&#xa8;" horiz-adv-x="1030" 
d="M428 1393q6 38 36 64t73 26q52 0 75.5 -33.5t14.5 -81.5q-6 -37 -36 -62.5t-73 -25.5q-52 0 -75.5 33t-14.5 80zM735 1393q6 38 36 64t73 26q52 0 75.5 -33.5t14.5 -81.5q-6 -37 -36 -62.5t-73 -25.5q-52 0 -75.5 33t-14.5 80z" />
    <glyph glyph-name="copyright" unicode="&#xa9;" horiz-adv-x="1615" 
d="M709 -33q-115 0 -213.5 28t-172.5 80.5t-128.5 126t-82 164t-33 196.5t18.5 222q40 205 162.5 366.5t312 254t414.5 92.5q138 0 251.5 -40.5t190.5 -114t125.5 -175.5t56.5 -225.5t-16 -263.5q-40 -206 -161.5 -366.5t-310.5 -252.5t-414 -92zM725 49q149 0 281.5 51.5
t231 140t166 207.5t93.5 254q21 98 16.5 188.5t-26.5 170t-67 144.5t-106 112t-143.5 72.5t-179.5 25.5q-199 0 -369.5 -88.5t-280 -237t-144.5 -329.5q-20 -118 -12 -223.5t51.5 -195t110 -154.5t164.5 -101.5t214 -36.5zM1122 868q1 18 -2 38t-15 46.5t-32.5 47t-59.5 35
t-91 14.5q-80 0 -142.5 -27t-102.5 -75t-64.5 -104t-37.5 -124q-60 -303 203 -303q56 0 104.5 15t79 36t55 48t36 46.5t18.5 36.5h141q-36 -140 -157.5 -233t-284.5 -93q-204 0 -289.5 129t-44.5 342q39 201 172 325t326 124q113 0 192 -46.5t111.5 -119t24.5 -158.5h-140z
" />
    <glyph glyph-name="guillemotleft" unicode="&#xab;" horiz-adv-x="786" 
d="M43 424l33 184l327 234l-30 -164l-226 -160l-2 -4l162 -160l-28 -164zM426 424l33 184l327 234l-30 -164l-226 -160l-2 -4l162 -160l-28 -164z" />
    <glyph glyph-name="logicalnot" unicode="&#xac;" horiz-adv-x="1140" 
d="M811 651h-664l33 164h848l-102 -520h-185z" />
    <glyph glyph-name="registered" unicode="&#xae;" horiz-adv-x="1044" 
d="M549 506q-136 0 -242.5 70.5t-155 193t-20.5 264.5q40 211 188 337t363 126q136 0 242.5 -70.5t155 -193t20.5 -264.5q-40 -211 -188 -337t-363 -126zM555 588q186 0 309 108.5t160 296.5q16 84 -5.5 163t-70.5 135t-121 90t-153 34q-186 0 -308.5 -109.5t-158.5 -295.5
q-16 -85 5 -164t69.5 -135t120.5 -89.5t153 -33.5zM385 743l102 527h209q79 0 120 -44.5t28 -117.5q-20 -101 -113 -123l-12 -2q32 -6 47 -32.5t14 -59t-3.5 -66t-7 -55t4.5 -25.5l4 -2l-88 5q-7 8 -0.5 30.5t8.5 53t0.5 58t-24.5 47t-66 19.5h-96l-41 -213h-86zM557 1190
l-29 -156h84q27 0 45 2.5t41.5 10t38.5 27.5t21 50q5 11 2 20t-2.5 16t-5.5 12t-9 8t-12 5.5t-13.5 3.5t-15 1h-16h-16.5h-17h-96z" />
    <glyph glyph-name="macron" unicode="&#xaf;" horiz-adv-x="1013" 
d="M416 1434h528l-26 -144h-529z" />
    <glyph glyph-name="degree" unicode="&#xb0;" horiz-adv-x="733" 
d="M444 879q-63 0 -112.5 19.5t-79 51.5t-48.5 74t-20.5 86t4.5 88q11 51 39 101.5t71 94.5t107.5 71.5t137.5 27.5q62 0 111.5 -19.5t79 -51.5t49 -74t21 -86t-4.5 -88q-11 -51 -39 -101.5t-71.5 -94.5t-107.5 -71.5t-137 -27.5zM469 1001q84 0 139 52t68 125
q17 88 -28 140t-130 52q-84 0 -139 -51.5t-68 -124.5q-17 -88 28 -140.5t130 -52.5z" />
    <glyph glyph-name="plusminus" unicode="&#xb1;" horiz-adv-x="1140" 
d="M125 629l31 162h383l69 352h164l-70 -352h383l-30 -162h-383l-70 -355h-164l70 355h-383zM31 143h930l-29 -143h-930z" />
    <glyph glyph-name="acute" unicode="&#xb4;" horiz-adv-x="1009" 
d="M696 1485h197l-199 -260h-137z" />
    <glyph glyph-name="paragraph" unicode="&#xb6;" horiz-adv-x="1114" 
d="M569 686h-90q-194 0 -275 102.5t-44 292.5q36 183 152.5 283t308.5 100h540l-284 -1464h-144l254 1300h-156l-253 -1300h-144z" />
    <glyph glyph-name="periodcentered" unicode="&#xb7;" horiz-adv-x="397" 
d="M211 522q-53 0 -80.5 34.5t-17.5 90.5q9 45 43.5 73t79.5 28q52 0 80 -35t18 -90q-9 -46 -44 -73.5t-79 -27.5z" />
    <glyph glyph-name="cedilla" unicode="&#xb8;" horiz-adv-x="1024" 
d="M469 -14l-104 -107l-11 -4q45 7 87.5 -3.5t71 -44.5t19.5 -87q-13 -65 -81 -103t-150 -38q-64 0 -122 18t-93 45l45 45q76 -29 143 -29q55 0 94.5 26t45.5 63q4 25 -14 34t-70 9q-50 0 -88 -17l-23 41l143 152h107z" />
    <glyph glyph-name="guillemotright" unicode="&#xbb;" horiz-adv-x="786" 
d="M324 424l-326 -234l29 164l225 160l4 4l-162 160l29 164l233 -234zM707 424l-326 -234l29 164l225 160l4 4l-162 160l29 164l233 -234z" />
    <glyph glyph-name="questiondown" unicode="&#xbf;" horiz-adv-x="1032" 
d="M694 1210q53 0 81 -34.5t18 -90.5q-9 -45 -43.5 -72.5t-79.5 -27.5q-52 0 -80.5 35t-18.5 90q9 46 44 73t79 27zM756 201h182q-44 -230 -183 -364t-378 -134q-195 0 -311.5 110.5t-83.5 276.5q6 32 18.5 62t25 52.5t35.5 47.5t39 40.5t47 38t47 33.5t51.5 34t49.5 32
q56 37 91.5 67.5t70.5 75t58.5 103.5t39.5 139h180q-33 -175 -97 -278.5t-185 -188.5q-26 -19 -71 -45t-75 -45.5t-63 -47t-54 -63.5t-30 -81q-17 -86 48 -142.5t181 -56.5q300 0 367 334z" />
    <glyph glyph-name="Agrave" unicode="&#xc0;" horiz-adv-x="1327" 
d="M891 1905l37 -260h-131l-99 260h193zM958 367h-645l-200 -367h-193l825 1464h205l254 -1464h-188zM406 530h524l-111 764h-4z" />
    <glyph glyph-name="Aacute" unicode="&#xc1;" horiz-adv-x="1327" 
d="M944 1905h197l-201 -260h-135zM958 367h-645l-200 -367h-193l825 1464h205l254 -1464h-188zM406 530h524l-111 764h-4z" />
    <glyph glyph-name="Acircumflex" unicode="&#xc2;" horiz-adv-x="1327" 
d="M592 1645l237 260h185l139 -260h-162l-80 172h-4l-149 -172h-166zM958 367h-645l-200 -367h-193l825 1464h205l254 -1464h-188zM406 530h524l-111 764h-4z" />
    <glyph glyph-name="Atilde" unicode="&#xc3;" horiz-adv-x="1327" 
d="M606 1702q19 96 68.5 141t109.5 45q45 0 93 -18t85.5 -36.5t57.5 -18.5q56 0 72 75l120 -12q-20 -98 -69 -142t-109 -44q-46 0 -94 18t-85 36.5t-56 18.5q-32 0 -50 -24.5t-22 -50.5zM958 367h-645l-200 -367h-193l825 1464h205l254 -1464h-188zM406 530h524l-111 764h-4
z" />
    <glyph glyph-name="Adieresis" unicode="&#xc4;" horiz-adv-x="1327" 
d="M653 1812q8 38 38 64.5t73 26.5q52 0 75.5 -33.5t14.5 -81.5q-6 -37 -36 -62.5t-73 -25.5q-52 0 -76 32.5t-16 79.5zM961 1812q8 39 37.5 65t72.5 26q52 0 75.5 -33.5t14.5 -81.5q-6 -37 -35.5 -62.5t-72.5 -25.5q-52 0 -76 32.5t-16 79.5zM958 367h-645l-200 -367h-193
l825 1464h205l254 -1464h-188zM406 530h524l-111 764h-4z" />
    <glyph glyph-name="Aring" unicode="&#xc5;" horiz-adv-x="1327" 
d="M877 1614q-78 0 -122.5 53.5t-29.5 136.5q13 72 72 120t129 48q78 0 124 -55t29 -137q-15 -73 -73 -119.5t-129 -46.5zM881 1696q47 0 77.5 28t38.5 72q9 45 -13 69.5t-62 24.5q-49 0 -79 -28t-38 -72q-9 -46 12.5 -70t63.5 -24zM958 367h-645l-200 -367h-193l825 1464
h205l254 -1464h-188zM406 530h524l-111 764h-4z" />
    <glyph glyph-name="AE" unicode="&#xc6;" horiz-adv-x="2015" 
d="M995 164h875l-33 -164h-1059l72 367h-531l-200 -367h-193l826 1464h1345l-31 -164h-849l-91 -460h752l-31 -164h-751zM412 530h471l147 764h-209z" />
    <glyph glyph-name="Ccedilla" unicode="&#xc7;" horiz-adv-x="1415" 
d="M909 1329q-102 0 -193.5 -34.5t-160.5 -93t-124 -137t-90 -165t-52 -178.5q-15 -74 -16.5 -144.5t10 -136.5t41 -121t73.5 -96.5t111 -64.5t151 -23q111 0 205 35.5t156.5 94t103 123.5t60.5 134h182q-69 -236 -249.5 -386.5t-426.5 -162.5l-96 -94l-10 -4
q45 7 87.5 -3.5t71 -44.5t19.5 -87q-13 -65 -81.5 -103t-150.5 -38q-64 0 -122 18t-93 45l45 45q76 -29 144 -29q55 0 94 26t45 63q4 25 -14.5 34t-69.5 9q-50 0 -88 -17l-22 41l135 139q-180 15 -302.5 117.5t-168 273t-4.5 381.5q42 215 159 385.5t288 266.5t366 96
q133 0 239 -41.5t171.5 -113t97 -165t24.5 -198.5h-180q0 50 -8.5 95.5t-33.5 94.5t-64 84t-105.5 57.5t-153.5 22.5z" />
    <glyph glyph-name="Egrave" unicode="&#xc8;" horiz-adv-x="1267" 
d="M889 1905l37 -260h-131l-99 260h193zM379 840h751l-30 -164h-752l-100 -512h874l-32 -164h-1059l284 1464h1035l-31 -164h-850z" />
    <glyph glyph-name="Eacute" unicode="&#xc9;" horiz-adv-x="1267" 
d="M942 1905h197l-201 -260h-135zM379 840h751l-30 -164h-752l-100 -512h874l-32 -164h-1059l284 1464h1035l-31 -164h-850z" />
    <glyph glyph-name="Ecircumflex" unicode="&#xca;" horiz-adv-x="1267" 
d="M590 1645l237 260h185l139 -260h-162l-80 172h-4l-149 -172h-166zM379 840h751l-30 -164h-752l-100 -512h874l-32 -164h-1059l284 1464h1035l-31 -164h-850z" />
    <glyph glyph-name="Edieresis" unicode="&#xcb;" horiz-adv-x="1267" 
d="M651 1812q8 38 38 64.5t73 26.5q52 0 75.5 -33.5t14.5 -81.5q-6 -37 -36 -62.5t-73 -25.5q-52 0 -76 32.5t-16 79.5zM958 1812q8 38 38 64.5t73 26.5q52 0 75.5 -33.5t14.5 -81.5q-6 -37 -35.5 -62.5t-72.5 -25.5q-52 0 -76.5 32.5t-16.5 79.5zM379 840h751l-30 -164
h-752l-100 -512h874l-32 -164h-1059l284 1464h1035l-31 -164h-850z" />
    <glyph glyph-name="Igrave" unicode="&#xcc;" horiz-adv-x="434" 
d="M428 1905l37 -260h-131l-98 260h192zM293 1464h184l-284 -1464h-185z" />
    <glyph glyph-name="Iacute" unicode="&#xcd;" horiz-adv-x="460" 
d="M508 1905h197l-201 -260h-135zM319 1464h185l-285 -1464h-184z" />
    <glyph glyph-name="Icircumflex" unicode="&#xce;" horiz-adv-x="460" 
d="M156 1645l237 260h185l139 -260h-162l-80 172h-4l-149 -172h-166zM319 1464h185l-285 -1464h-184z" />
    <glyph glyph-name="Idieresis" unicode="&#xcf;" horiz-adv-x="483" 
d="M227 1812q8 38 38 64.5t73 26.5q52 0 75.5 -33.5t14.5 -81.5q-6 -37 -36 -62.5t-73 -25.5q-52 0 -76 32.5t-16 79.5zM535 1812q8 39 37.5 65t72.5 26q52 0 75.5 -33.5t14.5 -81.5q-6 -37 -35.5 -62.5t-72.5 -25.5q-52 0 -76 32.5t-16 79.5zM330 1464h184l-285 -1464h-184
z" />
    <glyph glyph-name="Eth" unicode="&#xd0;" horiz-adv-x="1400" 
d="M856 1464q305 0 442.5 -195.5t69.5 -549.5q-67 -346 -274 -532.5t-512 -186.5h-537l135 686h-139l27 143h139l123 635h526zM604 164q108 0 198 32.5t152.5 86.5t110.5 130.5t76.5 156.5t46.5 173q109 557 -354 557h-351l-92 -471h471l-26 -143h-471l-103 -522h342z" />
    <glyph glyph-name="Ntilde" unicode="&#xd1;" horiz-adv-x="1413" 
d="M647 1702q19 96 68.5 141t109.5 45q45 0 93 -18t85.5 -36.5t57.5 -18.5q56 0 72 75l120 -12q-20 -98 -69 -142t-109 -44q-46 0 -94 18t-85 36.5t-56 18.5q-32 0 -50 -24.5t-22 -50.5zM31 0l284 1464h226l495 -1206h6l234 1206h184l-284 -1464h-224l-497 1202h-4
l-236 -1202h-184z" />
    <glyph glyph-name="Ograve" unicode="&#xd2;" horiz-adv-x="1556" 
d="M1001 1905l37 -260h-131l-98 260h192zM678 -29q-128 0 -234.5 37.5t-180.5 106.5t-120.5 165t-55 213t14.5 252q42 216 162.5 386t300.5 266t389 96q214 0 361 -99.5t203.5 -275t13.5 -397.5q-42 -216 -162.5 -386t-301.5 -267t-390 -97zM692 135q109 0 205.5 32.5
t170.5 89.5t132.5 134.5t95.5 166.5t56 187q16 94 16 179.5t-29 159.5t-77.5 128.5t-130.5 85.5t-189 31q-135 0 -250.5 -49.5t-196.5 -134.5t-135 -192.5t-77 -231.5q-15 -78 -15.5 -150.5t14 -138.5t47.5 -120t81.5 -93.5t120.5 -61.5t161 -22z" />
    <glyph glyph-name="Oacute" unicode="&#xd3;" horiz-adv-x="1556" 
d="M1055 1905h196l-200 -260h-136zM678 -29q-128 0 -234.5 37.5t-180.5 106.5t-120.5 165t-55 213t14.5 252q42 216 162.5 386t300.5 266t389 96q214 0 361 -99.5t203.5 -275t13.5 -397.5q-42 -216 -162.5 -386t-301.5 -267t-390 -97zM692 135q109 0 205.5 32.5t170.5 89.5
t132.5 134.5t95.5 166.5t56 187q16 94 16 179.5t-29 159.5t-77.5 128.5t-130.5 85.5t-189 31q-135 0 -250.5 -49.5t-196.5 -134.5t-135 -192.5t-77 -231.5q-15 -78 -15.5 -150.5t14 -138.5t47.5 -120t81.5 -93.5t120.5 -61.5t161 -22z" />
    <glyph glyph-name="Ocircumflex" unicode="&#xd4;" horiz-adv-x="1556" 
d="M702 1645l238 260h184l140 -260h-162l-80 172h-4l-150 -172h-166zM678 -29q-128 0 -234.5 37.5t-180.5 106.5t-120.5 165t-55 213t14.5 252q42 216 162.5 386t300.5 266t389 96q214 0 361 -99.5t203.5 -275t13.5 -397.5q-42 -216 -162.5 -386t-301.5 -267t-390 -97z
M692 135q109 0 205.5 32.5t170.5 89.5t132.5 134.5t95.5 166.5t56 187q16 94 16 179.5t-29 159.5t-77.5 128.5t-130.5 85.5t-189 31q-135 0 -250.5 -49.5t-196.5 -134.5t-135 -192.5t-77 -231.5q-15 -78 -15.5 -150.5t14 -138.5t47.5 -120t81.5 -93.5t120.5 -61.5t161 -22z
" />
    <glyph glyph-name="Otilde" unicode="&#xd5;" horiz-adv-x="1556" 
d="M717 1702q19 96 68.5 141t109.5 45q45 0 92.5 -18t85 -36.5t57.5 -18.5q56 0 72 75l121 -12q-20 -98 -69 -142t-109 -44q-46 0 -94.5 18t-85.5 36.5t-56 18.5q-32 0 -49.5 -24t-21.5 -51zM678 -29q-128 0 -234.5 37.5t-180.5 106.5t-120.5 165t-55 213t14.5 252
q42 216 162.5 386t300.5 266t389 96q214 0 361 -99.5t203.5 -275t13.5 -397.5q-42 -216 -162.5 -386t-301.5 -267t-390 -97zM692 135q109 0 205.5 32.5t170.5 89.5t132.5 134.5t95.5 166.5t56 187q16 94 16 179.5t-29 159.5t-77.5 128.5t-130.5 85.5t-189 31
q-135 0 -250.5 -49.5t-196.5 -134.5t-135 -192.5t-77 -231.5q-15 -78 -15.5 -150.5t14 -138.5t47.5 -120t81.5 -93.5t120.5 -61.5t161 -22z" />
    <glyph glyph-name="Odieresis" unicode="&#xd6;" horiz-adv-x="1556" 
d="M764 1812q8 39 37.5 65t72.5 26q52 0 76 -33.5t15 -81.5q-6 -37 -36 -62.5t-73 -25.5q-52 0 -76 32.5t-16 79.5zM1071 1812q8 38 38 64.5t73 26.5q52 0 75.5 -33.5t14.5 -81.5q-6 -37 -36 -62.5t-73 -25.5q-52 0 -76 32.5t-16 79.5zM678 -29q-128 0 -234.5 37.5
t-180.5 106.5t-120.5 165t-55 213t14.5 252q42 216 162.5 386t300.5 266t389 96q214 0 361 -99.5t203.5 -275t13.5 -397.5q-42 -216 -162.5 -386t-301.5 -267t-390 -97zM692 135q109 0 205.5 32.5t170.5 89.5t132.5 134.5t95.5 166.5t56 187q16 94 16 179.5t-29 159.5
t-77.5 128.5t-130.5 85.5t-189 31q-135 0 -250.5 -49.5t-196.5 -134.5t-135 -192.5t-77 -231.5q-15 -78 -15.5 -150.5t14 -138.5t47.5 -120t81.5 -93.5t120.5 -61.5t161 -22z" />
    <glyph glyph-name="multiply" unicode="&#xd7;" horiz-adv-x="1095" 
d="M1061 975l-369 -309l248 -310l-135 -116l-250 309l-369 -309l-98 116l371 310l-250 309l135 117l250 -310l369 310z" />
    <glyph glyph-name="Oslash" unicode="&#xd8;" horiz-adv-x="1566" 
d="M1671 1386l-209 -176q106 -201 51 -489q-42 -216 -162.5 -386t-301.5 -267t-390 -97q-293 0 -452 187l-174 -148l-60 72l179 149q-126 207 -68 514q42 216 162.5 386t300.5 266t389 96q157 0 277 -54.5t196 -152.5l199 170zM264 721q-44 -220 25 -375l985 828
q-108 155 -350 155q-135 0 -251 -49.5t-197 -134.5t-135 -193t-77 -231zM1333 745q41 200 -14 347l-981 -824q111 -133 336 -133q135 0 250.5 49.5t196.5 135t135 193.5t77 232z" />
    <glyph glyph-name="Ugrave" unicode="&#xd9;" horiz-adv-x="1343" 
d="M895 1905l37 -260h-131l-99 260h193zM1223 481q-45 -235 -209 -372.5t-443 -137.5q-116 0 -206 25.5t-146.5 72.5t-90 112t-37.5 144t11 169l189 970h184l-190 -983q-34 -178 39.5 -262t261.5 -84q386 0 454 359l189 970h184z" />
    <glyph glyph-name="Uacute" unicode="&#xda;" horiz-adv-x="1343" 
d="M948 1905h197l-201 -260h-135zM1223 481q-45 -235 -209 -372.5t-443 -137.5q-116 0 -206 25.5t-146.5 72.5t-90 112t-37.5 144t11 169l189 970h184l-190 -983q-34 -178 39.5 -262t261.5 -84q386 0 454 359l189 970h184z" />
    <glyph glyph-name="Ucircumflex" unicode="&#xdb;" horiz-adv-x="1343" 
d="M596 1645l238 260h184l139 -260h-162l-80 172h-4l-149 -172h-166zM1223 481q-45 -235 -209 -372.5t-443 -137.5q-116 0 -206 25.5t-146.5 72.5t-90 112t-37.5 144t11 169l189 970h184l-190 -983q-34 -178 39.5 -262t261.5 -84q386 0 454 359l189 970h184z" />
    <glyph glyph-name="Udieresis" unicode="&#xdc;" horiz-adv-x="1343" 
d="M657 1812q8 38 38 64.5t73 26.5q52 0 75.5 -33.5t14.5 -81.5q-6 -37 -35.5 -62.5t-72.5 -25.5q-52 0 -76.5 32.5t-16.5 79.5zM965 1812q8 39 37.5 65t72.5 26q52 0 75.5 -33.5t14.5 -81.5q-6 -37 -35.5 -62.5t-72.5 -25.5q-52 0 -76 32.5t-16 79.5zM1223 481
q-45 -235 -209 -372.5t-443 -137.5q-116 0 -206 25.5t-146.5 72.5t-90 112t-37.5 144t11 169l189 970h184l-190 -983q-34 -178 39.5 -262t261.5 -84q386 0 454 359l189 970h184z" />
    <glyph glyph-name="Yacute" unicode="&#xdd;" horiz-adv-x="1236" 
d="M889 1905h196l-200 -260h-135zM168 1464h197l282 -716h4l568 716h200l-702 -864l-119 -600h-184l118 600z" />
    <glyph glyph-name="Thorn" unicode="&#xde;" horiz-adv-x="1241" 
d="M29 0l284 1464h185l-47 -245h393q103 0 183 -24.5t137 -77.5t75.5 -136.5t-0.5 -200.5q-22 -110 -73 -191t-125 -129t-161.5 -70.5t-191.5 -22.5h-403l-72 -367h-184zM420 1055l-103 -525h412q275 0 330 275q25 129 -27.5 189.5t-189.5 60.5h-422z" />
    <glyph glyph-name="germandbls" unicode="&#xdf;" horiz-adv-x="1028" 
d="M371 1026l-201 -1026h-164l211 1079q39 197 168 305.5t334 108.5q161 0 258 -101t65 -270q-23 -118 -99.5 -190t-197.5 -121l-10 -4q289 -96 226 -422q-34 -176 -162 -295t-289 -119q-99 0 -211 31l18 139q125 -48 226 -21t169 105t89 185q14 59 9 105t-17 80.5
t-36.5 59.5t-51 41.5t-60 26t-62.5 13t-59 3.5h-65l26 144h52q53 0 107 14.5t103 43t84.5 76.5t47.5 109q19 90 -23 157t-145 67q-82 0 -142.5 -24.5t-99 -71t-61.5 -101t-37 -127.5z" />
    <glyph glyph-name="agrave" unicode="&#xe0;" horiz-adv-x="1042" 
d="M717 1225h-129l-101 260h193zM954 737l-98 -508q-8 -41 -7 -67t24.5 -36.5t76.5 -4.5l-22 -111q-52 -20 -92 -20q-76 0 -115 31t-43 110q-147 -160 -385 -160q-161 0 -240 87.5t-51 234.5q9 46 28 84t41.5 66t60.5 52t71.5 40t89 33t98 27t113.5 26q65 14 101.5 23.5
t76.5 24t60.5 30t36.5 38.5t22 54q12 65 -25 102t-151 37q-150 0 -222.5 -49.5t-103.5 -165.5h-162q39 168 161 263t337 95q80 0 143 -17.5t110.5 -55.5t65.5 -105t0 -158zM727 410l37 163q-42 -36 -252 -79q-168 -34 -250.5 -81t-97.5 -128q-15 -80 27.5 -125t127.5 -45
q155 0 265 75.5t143 219.5z" />
    <glyph glyph-name="aacute" unicode="&#xe1;" horiz-adv-x="1042" 
d="M930 1485l-199 -260h-137l139 260h197zM954 737l-98 -508q-8 -41 -7 -67t24.5 -36.5t76.5 -4.5l-22 -111q-52 -20 -92 -20q-76 0 -115 31t-43 110q-147 -160 -385 -160q-161 0 -240 87.5t-51 234.5q9 46 28 84t41.5 66t60.5 52t71.5 40t89 33t98 27t113.5 26
q65 14 101.5 23.5t76.5 24t60.5 30t36.5 38.5t22 54q12 65 -25 102t-151 37q-150 0 -222.5 -49.5t-103.5 -165.5h-162q39 168 161 263t337 95q80 0 143 -17.5t110.5 -55.5t65.5 -105t0 -158zM727 410l37 163q-42 -36 -252 -79q-168 -34 -250.5 -81t-97.5 -128
q-15 -80 27.5 -125t127.5 -45q155 0 265 75.5t143 219.5z" />
    <glyph glyph-name="acircumflex" unicode="&#xe2;" horiz-adv-x="1042" 
d="M696 1397l-147 -172h-168l237 260h185l139 -260h-160l-82 172h-4zM954 737l-98 -508q-8 -41 -7 -67t24.5 -36.5t76.5 -4.5l-22 -111q-52 -20 -92 -20q-76 0 -115 31t-43 110q-147 -160 -385 -160q-161 0 -240 87.5t-51 234.5q9 46 28 84t41.5 66t60.5 52t71.5 40t89 33
t98 27t113.5 26q65 14 101.5 23.5t76.5 24t60.5 30t36.5 38.5t22 54q12 65 -25 102t-151 37q-150 0 -222.5 -49.5t-103.5 -165.5h-162q39 168 161 263t337 95q80 0 143 -17.5t110.5 -55.5t65.5 -105t0 -158zM727 410l37 163q-42 -36 -252 -79q-168 -34 -250.5 -81
t-97.5 -128q-15 -80 27.5 -125t127.5 -45q155 0 265 75.5t143 219.5z" />
    <glyph glyph-name="atilde" unicode="&#xe3;" horiz-adv-x="1042" 
d="M588 1346q-31 0 -49.5 -25t-22.5 -51l-121 12q19 96 68.5 141t109.5 45q45 0 93 -18t85.5 -36.5t57.5 -18.5q56 0 72 75l120 -12q-20 -98 -68.5 -142t-109.5 -44q-45 0 -92.5 18.5t-85 37t-57.5 18.5zM635 1073q80 0 143 -17.5t110.5 -55.5t65.5 -105t0 -158l-98 -508
q-8 -41 -7 -67t24.5 -36.5t76.5 -4.5l-22 -111q-52 -20 -92 -20q-76 0 -115 31t-43 110q-147 -160 -385 -160q-161 0 -240 87.5t-51 234.5q9 46 28 84t41.5 66t60.5 52t71.5 40t89 33t98 27t113.5 26q65 14 101.5 23.5t76.5 24t60.5 30t36.5 38.5t22 54q12 65 -25 102
t-151 37q-150 0 -222.5 -49.5t-103.5 -165.5h-162q39 168 161 263t337 95zM727 410l37 163q-42 -36 -252 -79q-168 -34 -250.5 -81t-97.5 -128q-15 -80 27.5 -125t127.5 -45q155 0 265 75.5t143 219.5z" />
    <glyph glyph-name="adieresis" unicode="&#xe4;" horiz-adv-x="1042" 
d="M535 1280q-52 0 -76 33t-15 80q6 38 36 64t73 26q52 0 75.5 -33.5t14.5 -81.5q-6 -37 -35.5 -62.5t-72.5 -25.5zM842 1280q-52 0 -75.5 33t-14.5 80q6 38 35.5 64t72.5 26q52 0 75.5 -33.5t14.5 -81.5q-6 -37 -35.5 -62.5t-72.5 -25.5zM954 737l-98 -508q-8 -41 -7 -67
t24.5 -36.5t76.5 -4.5l-22 -111q-52 -20 -92 -20q-76 0 -115 31t-43 110q-147 -160 -385 -160q-161 0 -240 87.5t-51 234.5q9 46 28 84t41.5 66t60.5 52t71.5 40t89 33t98 27t113.5 26q65 14 101.5 23.5t76.5 24t60.5 30t36.5 38.5t22 54q12 65 -25 102t-151 37
q-150 0 -222.5 -49.5t-103.5 -165.5h-162q39 168 161 263t337 95q80 0 143 -17.5t110.5 -55.5t65.5 -105t0 -158zM727 410l37 163q-42 -36 -252 -79q-168 -34 -250.5 -81t-97.5 -128q-15 -80 27.5 -125t127.5 -45q155 0 265 75.5t143 219.5z" />
    <glyph glyph-name="aring" unicode="&#xe5;" horiz-adv-x="1042" 
d="M662 1194q-79 0 -124 53.5t-28 136.5q13 72 72 120t129 48q78 0 123 -55t30 -137q-15 -73 -73 -119.5t-129 -46.5zM590 1370q-9 -46 12.5 -70t63.5 -24q47 0 77.5 28t38.5 72q9 45 -13 69.5t-62 24.5q-48 0 -77.5 -28t-39.5 -72zM954 737l-98 -508q-8 -41 -7 -67
t24.5 -36.5t76.5 -4.5l-22 -111q-52 -20 -92 -20q-76 0 -115 31t-43 110q-147 -160 -385 -160q-161 0 -240 87.5t-51 234.5q9 46 28 84t41.5 66t60.5 52t71.5 40t89 33t98 27t113.5 26q65 14 101.5 23.5t76.5 24t60.5 30t36.5 38.5t22 54q12 65 -25 102t-151 37
q-150 0 -222.5 -49.5t-103.5 -165.5h-162q39 168 161 263t337 95q80 0 143 -17.5t110.5 -55.5t65.5 -105t0 -158zM727 410l37 163q-42 -36 -252 -79q-168 -34 -250.5 -81t-97.5 -128q-15 -80 27.5 -125t127.5 -45q155 0 265 75.5t143 219.5z" />
    <glyph glyph-name="ae" unicode="&#xe6;" horiz-adv-x="1789" 
d="M1735 473h-826q-19 -97 1 -176.5t87 -130.5t174 -51q61 0 115.5 15.5t92 38.5t69 53t49.5 56t29 50h174q-67 -162 -206.5 -259.5t-326.5 -97.5q-142 0 -241 60t-146 168q-108 -131 -227.5 -179.5t-259.5 -48.5q-161 0 -240 87.5t-51 234.5q9 46 28 84t41.5 66t60.5 52
t71.5 40t89 33t98 27t113.5 26q65 14 101.5 23.5t76.5 24t60.5 30t36.5 38.5t22 54q12 65 -25 102t-151 37q-150 0 -222.5 -49.5t-103.5 -165.5h-162q39 168 161 263t337 95q115 0 197.5 -37.5t113.5 -117.5q161 155 410 155q245 0 340.5 -158t38.5 -442zM1346 930
q-148 0 -265.5 -92.5t-142.5 -221.5h664q26 140 -40.5 227t-215.5 87zM727 410l35 151q0 2 1 6t1 6q-42 -36 -252 -79q-168 -34 -250.5 -81t-97.5 -128q-15 -80 27.5 -125t127.5 -45q155 0 265 75.5t143 219.5z" />
    <glyph glyph-name="ccedilla" unicode="&#xe7;" horiz-adv-x="1058" 
d="M1042 662h-159q5 51 -3.5 96t-33.5 85t-76.5 63.5t-124.5 23.5q-91 0 -167.5 -35.5t-129 -95t-86.5 -131t-49 -150.5q-9 -58 -11 -115t15 -109t46 -92t82 -63.5t124 -23.5q77 0 141.5 25t106.5 65.5t68.5 84t39.5 89.5h164q-45 -173 -185.5 -287t-322.5 -121l-94 -92
l-10 -4q45 7 87.5 -3.5t71 -44.5t19.5 -87q-13 -65 -81 -103t-150 -38q-64 0 -122 18t-93 45l45 45q76 -29 143 -29q55 0 94 26t45 63q4 25 -14 34t-70 9q-50 0 -88 -17l-22 41l139 141q-194 28 -283 180t-45 380q47 242 212 390t390 148q193 0 297.5 -116t89.5 -295z" />
    <glyph glyph-name="egrave" unicode="&#xe8;" horiz-adv-x="1083" 
d="M725 1225h-129l-100 260h192zM465 115q75 0 139.5 22.5t106.5 58t67.5 68t40.5 64.5h174q-67 -162 -206 -259.5t-326 -97.5q-238 0 -349 160t-61 414q50 253 209.5 390.5t388.5 137.5q245 0 340.5 -158t38.5 -442h-825q-19 -97 1 -176.5t87 -130.5t174 -51zM639 930
q-148 0 -265.5 -92.5t-142.5 -221.5h664q26 140 -40.5 227t-215.5 87z" />
    <glyph glyph-name="eacute" unicode="&#xe9;" horiz-adv-x="1083" 
d="M938 1485l-199 -260h-137l139 260h197zM465 115q75 0 139.5 22.5t106.5 58t67.5 68t40.5 64.5h174q-67 -162 -206 -259.5t-326 -97.5q-238 0 -349 160t-61 414q50 253 209.5 390.5t388.5 137.5q245 0 340.5 -158t38.5 -442h-825q-19 -97 1 -176.5t87 -130.5t174 -51z
M639 930q-148 0 -265.5 -92.5t-142.5 -221.5h664q26 140 -40.5 227t-215.5 87z" />
    <glyph glyph-name="ecircumflex" unicode="&#xea;" horiz-adv-x="1083" 
d="M705 1397l-148 -172h-168l238 260h184l139 -260h-159l-82 172h-4zM465 115q75 0 139.5 22.5t106.5 58t67.5 68t40.5 64.5h174q-67 -162 -206 -259.5t-326 -97.5q-238 0 -349 160t-61 414q50 253 209.5 390.5t388.5 137.5q245 0 340.5 -158t38.5 -442h-825
q-19 -97 1 -176.5t87 -130.5t174 -51zM639 930q-148 0 -265.5 -92.5t-142.5 -221.5h664q26 140 -40.5 227t-215.5 87z" />
    <glyph glyph-name="edieresis" unicode="&#xeb;" horiz-adv-x="1083" 
d="M543 1280q-52 0 -75.5 33t-14.5 80q6 38 35.5 64t72.5 26q52 0 75.5 -33.5t14.5 -81.5q-6 -37 -35.5 -62.5t-72.5 -25.5zM850 1280q-52 0 -75.5 33t-14.5 80q6 38 35.5 64t72.5 26q52 0 75.5 -33.5t14.5 -81.5q-6 -37 -35.5 -62.5t-72.5 -25.5zM465 115q75 0 139.5 22.5
t106.5 58t67.5 68t40.5 64.5h174q-67 -162 -206 -259.5t-326 -97.5q-238 0 -349 160t-61 414q50 253 209.5 390.5t388.5 137.5q245 0 340.5 -158t38.5 -442h-825q-19 -97 1 -176.5t87 -130.5t174 -51zM639 930q-148 0 -265.5 -92.5t-142.5 -221.5h664q26 140 -40.5 227
t-215.5 87z" />
    <glyph glyph-name="igrave" unicode="&#xec;" horiz-adv-x="391" 
d="M342 1485l37 -260h-129l-100 260h192zM219 1044h164l-205 -1044h-164z" />
    <glyph glyph-name="iacute" unicode="&#xed;" horiz-adv-x="407" 
d="M387 1485h197l-199 -260h-137zM211 1044h164l-205 -1044h-164z" />
    <glyph glyph-name="icircumflex" unicode="&#xee;" horiz-adv-x="446" 
d="M68 1225l237 260h184l140 -260h-160l-82 172h-4l-147 -172h-168zM244 1044h164l-205 -1044h-164z" />
    <glyph glyph-name="idieresis" unicode="&#xef;" horiz-adv-x="462" 
d="M143 1393q6 38 36 64t73 26q52 0 75.5 -33.5t14.5 -81.5q-6 -37 -36 -62.5t-73 -25.5q-52 0 -75.5 33t-14.5 80zM451 1393q6 38 35.5 64t72.5 26q52 0 75.5 -33.5t14.5 -81.5q-6 -37 -35.5 -62.5t-72.5 -25.5q-52 0 -75.5 33t-14.5 80zM256 1044h164l-205 -1044h-164z
" />
    <glyph glyph-name="eth" unicode="&#xf0;" horiz-adv-x="1130" 
d="M950 1268q211 -292 137 -674q-18 -94 -51.5 -181t-88 -169.5t-123.5 -143t-164.5 -97t-204.5 -36.5q-241 0 -346.5 155.5t-55.5 416.5q33 167 125.5 292t215 187.5t257.5 62.5q101 0 180 -53.5t115 -140.5l8 14q-25 171 -159 332l-344 -90l-9 98l277 74q-68 71 -184 151
l213 -4q70 -43 133 -112l284 75l11 -98zM463 111q165 0 289.5 126.5t158.5 301.5q22 107 -0.5 197t-92 146t-175.5 56q-110 0 -202.5 -60.5t-149 -155t-78.5 -208.5q-18 -79 -9 -152t36.5 -128.5t85 -89t137.5 -33.5z" />
    <glyph glyph-name="ntilde" unicode="&#xf1;" horiz-adv-x="1073" 
d="M592 1346q-31 0 -49.5 -25t-22.5 -51l-121 12q19 96 69 141t110 45q45 0 92.5 -18t85 -36.5t57.5 -18.5q56 0 72 75l121 -12q-20 -98 -69 -142t-110 -44q-45 0 -92.5 18.5t-85 37t-57.5 18.5zM719 1073q75 0 134.5 -21t101.5 -64t56.5 -109t-1.5 -156l-142 -723h-163
l135 694q22 109 -18 172.5t-154 63.5q-140 0 -244 -81t-127 -204l-127 -645h-164l205 1044h164l-27 -124l4 4q60 64 153.5 106.5t213.5 42.5z" />
    <glyph glyph-name="ograve" unicode="&#xf2;" horiz-adv-x="1120" 
d="M705 1485l36 -260h-129l-100 260h193zM444 -29q-233 0 -338 148t-59 391q48 252 219.5 407.5t411.5 155.5q232 0 336.5 -147.5t58.5 -390.5q-48 -252 -219 -408t-410 -156zM477 115q164 0 275.5 111t152.5 284q22 86 14.5 162.5t-36 133.5t-90 90.5t-148.5 33.5
q-165 0 -277 -111t-153 -284q-22 -86 -14.5 -162.5t36.5 -133.5t91 -90.5t149 -33.5z" />
    <glyph glyph-name="oacute" unicode="&#xf3;" horiz-adv-x="1120" 
d="M758 1485h196l-198 -260h-138zM444 -29q-233 0 -338 148t-59 391q48 252 219.5 407.5t411.5 155.5q232 0 336.5 -147.5t58.5 -390.5q-48 -252 -219 -408t-410 -156zM477 115q164 0 275.5 111t152.5 284q22 86 14.5 162.5t-36 133.5t-90 90.5t-148.5 33.5
q-165 0 -277 -111t-153 -284q-22 -86 -14.5 -162.5t36.5 -133.5t91 -90.5t149 -33.5z" />
    <glyph glyph-name="ocircumflex" unicode="&#xf4;" horiz-adv-x="1120" 
d="M406 1225l237 260h184l140 -260h-160l-82 172h-4l-148 -172h-167zM444 -29q-233 0 -338 148t-59 391q48 252 219.5 407.5t411.5 155.5q232 0 336.5 -147.5t58.5 -390.5q-48 -252 -219 -408t-410 -156zM477 115q164 0 275.5 111t152.5 284q22 86 14.5 162.5t-36 133.5
t-90 90.5t-148.5 33.5q-165 0 -277 -111t-153 -284q-22 -86 -14.5 -162.5t36.5 -133.5t91 -90.5t149 -33.5z" />
    <glyph glyph-name="otilde" unicode="&#xf5;" horiz-adv-x="1120" 
d="M420 1282q19 96 68.5 141t109.5 45q45 0 93 -18t85.5 -36.5t57.5 -18.5q55 0 71 75l121 -12q-20 -98 -68.5 -142t-109.5 -44q-45 0 -93 18.5t-85.5 37t-57.5 18.5q-31 0 -49 -25t-22 -51zM444 -29q-233 0 -338 148t-59 391q48 252 219.5 407.5t411.5 155.5
q232 0 336.5 -147.5t58.5 -390.5q-48 -252 -219 -408t-410 -156zM477 115q164 0 275.5 111t152.5 284q22 86 14.5 162.5t-36 133.5t-90 90.5t-148.5 33.5q-165 0 -277 -111t-153 -284q-22 -86 -14.5 -162.5t36.5 -133.5t91 -90.5t149 -33.5z" />
    <glyph glyph-name="odieresis" unicode="&#xf6;" horiz-adv-x="1120" 
d="M469 1393q6 38 36 64t73 26q52 0 75.5 -33.5t14.5 -81.5q-6 -37 -36 -62.5t-73 -25.5q-52 0 -75.5 33t-14.5 80zM776 1393q6 38 36 64t73 26q52 0 75.5 -33.5t14.5 -81.5q-6 -37 -36 -62.5t-73 -25.5q-52 0 -75.5 33t-14.5 80zM444 -29q-233 0 -338 148t-59 391
q48 252 219.5 407.5t411.5 155.5q232 0 336.5 -147.5t58.5 -390.5q-48 -252 -219 -408t-410 -156zM477 115q164 0 275.5 111t152.5 284q22 86 14.5 162.5t-36 133.5t-90 90.5t-148.5 33.5q-165 0 -277 -111t-153 -284q-22 -86 -14.5 -162.5t36.5 -133.5t91 -90.5t149 -33.5z
" />
    <glyph glyph-name="divide" unicode="&#xf7;" horiz-adv-x="1142" 
d="M651 895q-63 0 -91 33t-17 92q18 100 133 100q61 0 90 -33t18 -92q-18 -100 -133 -100zM117 588l33 164h929l-32 -164h-930zM520 215q-64 0 -92 33t-16 92q18 100 131 100q63 0 91.5 -33t16.5 -92q-18 -100 -131 -100z" />
    <glyph glyph-name="oslash" unicode="&#xf8;" horiz-adv-x="1181" 
d="M1223 993l-168 -141q55 -135 18 -317q-48 -252 -219 -408t-410 -156q-199 0 -307 111l-121 -102l-59 71l125 105q-76 142 -35 354q48 252 219.5 407.5t411.5 155.5q222 0 330 -137l153 129zM215 535q-35 -151 6 -261l651 549q-70 107 -227 107q-165 0 -277 -111
t-153 -284zM905 510q28 123 6 221l-641 -538q72 -78 207 -78q164 0 275.5 111t152.5 284z" />
    <glyph glyph-name="ugrave" unicode="&#xf9;" horiz-adv-x="1069" 
d="M705 1225h-130l-100 260h193zM897 1044h164l-205 -1044h-164l27 125l-4 -4q-61 -64 -154 -107t-213 -43q-75 0 -134.5 21t-101.5 64.5t-56.5 109.5t1.5 156l142 722h163l-135 -694q-22 -108 18 -171.5t154 -63.5q140 0 244 80.5t127 203.5z" />
    <glyph glyph-name="uacute" unicode="&#xfa;" horiz-adv-x="1069" 
d="M918 1485l-199 -260h-137l139 260h197zM897 1044h164l-205 -1044h-164l27 125l-4 -4q-61 -64 -154 -107t-213 -43q-75 0 -134.5 21t-101.5 64.5t-56.5 109.5t1.5 156l142 722h163l-135 -694q-22 -108 18 -171.5t154 -63.5q140 0 244 80.5t127 203.5z" />
    <glyph glyph-name="ucircumflex" unicode="&#xfb;" horiz-adv-x="1069" 
d="M684 1397l-147 -172h-168l237 260h185l139 -260h-160l-82 172h-4zM897 1044h164l-205 -1044h-164l27 125l-4 -4q-61 -64 -154 -107t-213 -43q-75 0 -134.5 21t-101.5 64.5t-56.5 109.5t1.5 156l142 722h163l-135 -694q-22 -108 18 -171.5t154 -63.5q140 0 244 80.5
t127 203.5z" />
    <glyph glyph-name="udieresis" unicode="&#xfc;" horiz-adv-x="1069" 
d="M522 1280q-52 0 -75.5 33t-14.5 80q6 38 36 64t73 26q52 0 75.5 -33.5t14.5 -81.5q-6 -37 -36 -62.5t-73 -25.5zM829 1280q-52 0 -75.5 33t-14.5 80q6 38 36 64t73 26q52 0 75.5 -33.5t14.5 -81.5q-6 -37 -36 -62.5t-73 -25.5zM897 1044h164l-205 -1044h-164l27 125
l-4 -4q-61 -64 -154 -107t-213 -43q-75 0 -134.5 21t-101.5 64.5t-56.5 109.5t1.5 156l142 722h163l-135 -694q-22 -108 18 -171.5t154 -63.5q140 0 244 80.5t127 203.5z" />
    <glyph glyph-name="yacute" unicode="&#xfd;" horiz-adv-x="1001" 
d="M690 1485h197l-199 -260h-137zM1092 1044l-666 -1136q-65 -109 -101 -150q-98 -109 -233 -110q-67 0 -141 22l20 121h19q71 -6 122.5 7.5t98.5 58.5q48 39 80 102.5t20 132.5l-213 952h183l153 -851h4l467 851h187z" />
    <glyph glyph-name="thorn" unicode="&#xfe;" horiz-adv-x="1132" 
d="M707 1073q98 0 177 -38.5t129.5 -111.5t68 -177.5t-8.5 -235.5q-32 -164 -118 -288.5t-201.5 -187.5t-243.5 -63q-221 0 -305 168l-8 -4l-95 -487h-163l352 1816h164l-109 -549l4 5q149 153 357 153zM500 115q105 0 194 62t143.5 155.5t75.5 202.5q10 60 10.5 117.5
t-16.5 107.5t-45.5 88t-76.5 60t-109 22q-148 0 -258.5 -115t-147.5 -305q-35 -181 26.5 -288t203.5 -107z" />
    <glyph glyph-name="ydieresis" unicode="&#xff;" horiz-adv-x="1001" 
d="M401 1393q6 38 36 64t73 26q52 0 75.5 -33.5t14.5 -81.5q-6 -37 -35.5 -62.5t-72.5 -25.5q-52 0 -76 33t-15 80zM709 1393q6 38 35.5 64t72.5 26q52 0 75.5 -33.5t14.5 -81.5q-6 -37 -35.5 -62.5t-72.5 -25.5q-52 0 -75.5 33t-14.5 80zM1092 1044l-666 -1136
q-65 -109 -101 -150q-98 -109 -233 -110q-67 0 -141 22l20 121h19q71 -6 122.5 7.5t98.5 58.5q48 39 80 102.5t20 132.5l-213 952h183l153 -851h4l467 851h187z" />
    <glyph glyph-name="Amacron" unicode="&#x100;" horiz-adv-x="1327" 
d="M651 1853h529l-27 -143h-528zM958 367h-645l-200 -367h-193l825 1464h205l254 -1464h-188zM406 530h524l-111 764h-4z" />
    <glyph glyph-name="amacron" unicode="&#x101;" horiz-adv-x="1042" 
d="M969 1434l-27 -144h-528l26 144h529zM635 1073q80 0 143 -17.5t110.5 -55.5t65.5 -105t0 -158l-98 -508q-8 -41 -7 -67t24.5 -36.5t76.5 -4.5l-22 -111q-52 -20 -92 -20q-76 0 -115 31t-43 110q-147 -160 -385 -160q-161 0 -240 87.5t-51 234.5q9 46 28 84t41.5 66
t60.5 52t71.5 40t89 33t98 27t113.5 26q65 14 101.5 23.5t76.5 24t60.5 30t36.5 38.5t22 54q12 65 -25 102t-151 37q-150 0 -222.5 -49.5t-103.5 -165.5h-162q39 168 161 263t337 95zM727 410l37 163q-42 -36 -252 -79q-168 -34 -250.5 -81t-97.5 -128q-15 -80 27.5 -125
t127.5 -45q155 0 265 75.5t143 219.5z" />
    <glyph glyph-name="Abreve" unicode="&#x102;" horiz-adv-x="1327" 
d="M877 1636q-118 0 -178.5 71t-39.5 204l121 -13q-10 -74 13.5 -106.5t87.5 -32.5q135 0 176 152l121 -13q-31 -129 -111 -195.5t-190 -66.5zM958 367h-645l-200 -367h-193l825 1464h205l254 -1464h-188zM406 530h524l-111 764h-4z" />
    <glyph glyph-name="abreve" unicode="&#x103;" horiz-adv-x="1042" 
d="M666 1217q-118 0 -178 70.5t-39 203.5l120 -12q-10 -75 14 -107.5t87 -32.5q135 0 176 152l121 -12q-31 -129 -111 -195.5t-190 -66.5zM635 1073q80 0 143 -17.5t110.5 -55.5t65.5 -105t0 -158l-98 -508q-8 -41 -7 -67t24.5 -36.5t76.5 -4.5l-22 -111q-52 -20 -92 -20
q-76 0 -115 31t-43 110q-147 -160 -385 -160q-161 0 -240 87.5t-51 234.5q9 46 28 84t41.5 66t60.5 52t71.5 40t89 33t98 27t113.5 26q65 14 101.5 23.5t76.5 24t60.5 30t36.5 38.5t22 54q12 65 -25 102t-151 37q-150 0 -222.5 -49.5t-103.5 -165.5h-162q39 168 161 263
t337 95zM727 410l37 163q-42 -36 -252 -79q-168 -34 -250.5 -81t-97.5 -128q-15 -80 27.5 -125t127.5 -45q155 0 265 75.5t143 219.5z" />
    <glyph glyph-name="Aogonek" unicode="&#x104;" horiz-adv-x="1327" 
d="M1044 -240q48 0 111 23l-16 -127q-61 -18 -131 -18q-95 0 -137 44.5t-27 118.5q11 63 67.5 119t120.5 82l-16 -2l-58 367h-645l-200 -367h-193l825 1464h205l254 -1464l-41 -4q-163 -112 -174 -184q-6 -25 10 -38.5t45 -13.5zM406 530h524l-111 764h-4z" />
    <glyph glyph-name="aogonek" unicode="&#x105;" horiz-adv-x="1042" 
d="M954 737l-98 -508q-8 -41 -7 -67t24.5 -36.5t76.5 -4.5l-22 -111q-1 0 -3 -1t-3 -1q-97 -63 -141 -108.5t-44 -87.5q0 -52 56 -52q47 0 110 23l-16 -127q-62 -18 -131 -18q-95 0 -137 44.5t-27 118.5q11 60 62.5 113.5t115.5 83.5q-87 22 -92 133q-147 -160 -385 -160
q-161 0 -240 87.5t-51 234.5q9 46 28 84t41.5 66t60.5 52t71.5 40t89 33t98 27t113.5 26q65 14 101.5 23.5t76.5 24t60.5 30t36.5 38.5t22 54q12 65 -25 102t-151 37q-150 0 -222.5 -49.5t-103.5 -165.5h-162q39 168 161 263t337 95q80 0 143 -17.5t110.5 -55.5t65.5 -105
t0 -158zM727 410l37 163q-42 -36 -252 -79q-168 -34 -250.5 -81t-97.5 -128q-15 -80 27.5 -125t127.5 -45q155 0 265 75.5t143 219.5z" />
    <glyph glyph-name="Cacute" unicode="&#x106;" horiz-adv-x="1415" 
d="M1020 1905h197l-201 -260h-135zM1274 975q0 50 -8.5 95.5t-33.5 94.5t-64 84t-105.5 57.5t-153.5 22.5q-102 0 -193.5 -34.5t-160.5 -93t-124 -137t-90 -165t-52 -178.5q-15 -74 -16.5 -144.5t10 -136.5t41 -121t73.5 -96.5t111 -64.5t151 -23q111 0 205 35.5t156.5 94
t103 123.5t60.5 134h182q-72 -248 -265.5 -399.5t-455.5 -151.5q-200 0 -337.5 99.5t-189.5 275.5t-9 399q42 215 159 385.5t288 266.5t366 96q133 0 239 -41.5t171.5 -113t97 -165t24.5 -198.5h-180z" />
    <glyph glyph-name="cacute" unicode="&#x107;" horiz-adv-x="1058" 
d="M731 1485h197l-199 -260h-137zM883 662q5 51 -3.5 96t-33.5 85t-76.5 63.5t-124.5 23.5q-91 0 -167.5 -35.5t-129 -95t-86.5 -131t-49 -150.5q-9 -58 -11 -115t15 -109t46 -92t82 -63.5t124 -23.5q77 0 141.5 25t106.5 65.5t68.5 84t39.5 89.5h164
q-46 -179 -193.5 -293.5t-336.5 -114.5q-231 0 -343.5 156.5t-62.5 407.5q47 242 212 390t390 148q193 0 297.5 -116t89.5 -295h-159z" />
    <glyph glyph-name="Cdotaccent" unicode="&#x10a;" horiz-adv-x="1415" 
d="M881 1812q8 39 37.5 65t72.5 26q52 0 75.5 -33.5t14.5 -81.5q-6 -37 -35.5 -62.5t-72.5 -25.5q-52 0 -76 32.5t-16 79.5zM1274 975q0 50 -8.5 95.5t-33.5 94.5t-64 84t-105.5 57.5t-153.5 22.5q-102 0 -193.5 -34.5t-160.5 -93t-124 -137t-90 -165t-52 -178.5
q-15 -74 -16.5 -144.5t10 -136.5t41 -121t73.5 -96.5t111 -64.5t151 -23q111 0 205 35.5t156.5 94t103 123.5t60.5 134h182q-72 -248 -265.5 -399.5t-455.5 -151.5q-200 0 -337.5 99.5t-189.5 275.5t-9 399q42 215 159 385.5t288 266.5t366 96q133 0 239 -41.5t171.5 -113
t97 -165t24.5 -198.5h-180z" />
    <glyph glyph-name="cdotaccent" unicode="&#x10b;" horiz-adv-x="1058" 
d="M594 1393q6 38 35.5 64t72.5 26q52 0 76 -33.5t15 -81.5q-6 -37 -36 -62.5t-73 -25.5q-52 0 -75.5 33t-14.5 80zM883 662q5 51 -3.5 96t-33.5 85t-76.5 63.5t-124.5 23.5q-91 0 -167.5 -35.5t-129 -95t-86.5 -131t-49 -150.5q-9 -58 -11 -115t15 -109t46 -92t82 -63.5
t124 -23.5q77 0 141.5 25t106.5 65.5t68.5 84t39.5 89.5h164q-46 -179 -193.5 -293.5t-336.5 -114.5q-231 0 -343.5 156.5t-62.5 407.5q47 242 212 390t390 148q193 0 297.5 -116t89.5 -295h-159z" />
    <glyph glyph-name="Ccaron" unicode="&#x10c;" horiz-adv-x="1415" 
d="M725 1905h160l82 -172h4l147 172h168l-239 -260h-185zM1274 975q0 50 -8.5 95.5t-33.5 94.5t-64 84t-105.5 57.5t-153.5 22.5q-102 0 -193.5 -34.5t-160.5 -93t-124 -137t-90 -165t-52 -178.5q-15 -74 -16.5 -144.5t10 -136.5t41 -121t73.5 -96.5t111 -64.5t151 -23
q111 0 205 35.5t156.5 94t103 123.5t60.5 134h182q-72 -248 -265.5 -399.5t-455.5 -151.5q-200 0 -337.5 99.5t-189.5 275.5t-9 399q42 215 159 385.5t288 266.5t366 96q133 0 239 -41.5t171.5 -113t97 -165t24.5 -198.5h-180z" />
    <glyph glyph-name="ccaron" unicode="&#x10d;" horiz-adv-x="1058" 
d="M436 1485h160l82 -172h4l147 172h168l-237 -260h-185zM883 662q5 51 -3.5 96t-33.5 85t-76.5 63.5t-124.5 23.5q-91 0 -167.5 -35.5t-129 -95t-86.5 -131t-49 -150.5q-9 -58 -11 -115t15 -109t46 -92t82 -63.5t124 -23.5q77 0 141.5 25t106.5 65.5t68.5 84t39.5 89.5h164
q-46 -179 -193.5 -293.5t-336.5 -114.5q-231 0 -343.5 156.5t-62.5 407.5q47 242 212 390t390 148q193 0 297.5 -116t89.5 -295h-159z" />
    <glyph glyph-name="Dcaron" unicode="&#x10e;" horiz-adv-x="1386" 
d="M524 1905h160l82 -172h4l148 172h167l-239 -260h-184zM31 0l284 1464h527q305 0 442.5 -195.5t69.5 -549.5q-67 -346 -274.5 -532.5t-512.5 -186.5h-536zM469 1300l-221 -1136h342q108 0 198 32.5t152.5 86.5t110.5 130.5t76.5 156.5t46.5 173q18 90 20.5 166.5
t-15 150.5t-58 125.5t-117.5 83t-185 31.5h-350z" />
    <glyph glyph-name="dcaron" unicode="&#x10f;" horiz-adv-x="1216" 
d="M1423 1475q64 0 90 -51.5t11 -133.5q-6 -35 -25.5 -72t-51.5 -72.5t-82.5 -61t-111.5 -31.5l4 73q48 8 103 46.5t65 76.5q-69 -20 -107 17.5t-26 103.5q9 48 43 76.5t88 28.5zM934 909l108 555h164l-284 -1464h-164l26 129l-2 -4q-150 -154 -352 -154q-100 0 -180 39
t-131 112t-68.5 177.5t8.5 235.5q32 165 118.5 288.5t203 186.5t246.5 63q217 0 301 -168zM457 115q148 0 258 115t147 305q35 181 -26 288t-203 107q-105 0 -194.5 -62t-144 -155.5t-75.5 -202.5q-10 -60 -10.5 -117.5t16.5 -107.5t45.5 -88t77 -60t109.5 -22z" />
    <glyph glyph-name="Dcroat" unicode="&#x110;" horiz-adv-x="1400" 
d="M856 1464q305 0 442.5 -195.5t69.5 -549.5q-67 -346 -274 -532.5t-512 -186.5h-537l135 686h-139l27 143h139l123 635h526zM604 164q108 0 198 32.5t152.5 86.5t110.5 130.5t76.5 156.5t46.5 173q109 557 -354 557h-351l-92 -471h471l-26 -143h-471l-103 -522h342z" />
    <glyph glyph-name="dcroat" unicode="&#x111;" horiz-adv-x="1150" 
d="M1323 1341l-29 -143h-139l-233 -1198h-164l26 129l-2 -4q-150 -154 -352 -154q-100 0 -180 39t-131 112t-68.5 177.5t8.5 235.5q32 165 118.5 288.5t203 186.5t246.5 63q217 0 301 -168l8 4l55 289h-307l29 143h307l22 123h164l-22 -123h139zM457 115q148 0 258 115
t147 305q35 181 -26 288t-203 107q-105 0 -194.5 -62t-144 -155.5t-75.5 -202.5q-10 -60 -10.5 -117.5t16.5 -107.5t45.5 -88t77 -60t109.5 -22z" />
    <glyph glyph-name="Emacron" unicode="&#x112;" horiz-adv-x="1267" 
d="M649 1853h529l-27 -143h-528zM379 840h751l-30 -164h-752l-100 -512h874l-32 -164h-1059l284 1464h1035l-31 -164h-850z" />
    <glyph glyph-name="emacron" unicode="&#x113;" horiz-adv-x="1083" 
d="M977 1434l-27 -144h-528l27 144h528zM465 115q75 0 139.5 22.5t106.5 58t67.5 68t40.5 64.5h174q-67 -162 -206 -259.5t-326 -97.5q-238 0 -349 160t-61 414q50 253 209.5 390.5t388.5 137.5q245 0 340.5 -158t38.5 -442h-825q-19 -97 1 -176.5t87 -130.5t174 -51z
M639 930q-148 0 -265.5 -92.5t-142.5 -221.5h664q26 140 -40.5 227t-215.5 87z" />
    <glyph glyph-name="Edotaccent" unicode="&#x116;" horiz-adv-x="1267" 
d="M803 1812q8 39 37.5 65t72.5 26q52 0 76 -33.5t15 -81.5q-6 -37 -36 -62.5t-73 -25.5q-52 0 -76 32.5t-16 79.5zM379 840h751l-30 -164h-752l-100 -512h874l-32 -164h-1059l284 1464h1035l-31 -164h-850z" />
    <glyph glyph-name="edotaccent" unicode="&#x117;" horiz-adv-x="1083" 
d="M694 1280q-52 0 -75.5 33t-14.5 80q6 38 36 64t73 26q52 0 75.5 -33.5t14.5 -81.5q-6 -37 -36 -62.5t-73 -25.5zM465 115q75 0 139.5 22.5t106.5 58t67.5 68t40.5 64.5h174q-67 -162 -206 -259.5t-326 -97.5q-238 0 -349 160t-61 414q50 253 209.5 390.5t388.5 137.5
q245 0 340.5 -158t38.5 -442h-825q-19 -97 1 -176.5t87 -130.5t174 -51zM639 930q-148 0 -265.5 -92.5t-142.5 -221.5h664q26 140 -40.5 227t-215.5 87z" />
    <glyph glyph-name="Eogonek" unicode="&#x118;" horiz-adv-x="1267" 
d="M952 -240q48 0 111 23l-16 -127q-61 -18 -132 -18q-94 0 -136 44.5t-27 118.5q11 63 67.5 119t120.5 82l-909 -2l284 1464h1035l-31 -164h-850l-90 -460h751l-30 -164h-752l-100 -512h874l-30 -164l-21 -4q-163 -112 -174 -184q-6 -25 10 -38.5t45 -13.5z" />
    <glyph glyph-name="eogonek" unicode="&#x119;" horiz-adv-x="1083" 
d="M51 545q50 253 209.5 390.5t388.5 137.5q245 0 340.5 -158t38.5 -442h-825q-19 -97 1 -176.5t87 -130.5t174 -51q75 0 139.5 22.5t106.5 58t67.5 68t40.5 64.5h174q-50 -122 -143 -209t-219 -125q-159 -112 -170 -182q-6 -25 10 -38.5t45 -13.5q48 0 111 23l-17 -127
q-62 -18 -131 -18q-95 0 -137 44.5t-27 118.5q9 48 44.5 93t86.5 77q-231 6 -338 165t-57 409zM231 616h664q26 140 -40.5 227t-215.5 87q-148 0 -265.5 -92.5t-142.5 -221.5z" />
    <glyph glyph-name="Ecaron" unicode="&#x11a;" horiz-adv-x="1267" 
d="M647 1905h160l82 -172h4l147 172h168l-239 -260h-185zM379 840h751l-30 -164h-752l-100 -512h874l-32 -164h-1059l284 1464h1035l-31 -164h-850z" />
    <glyph glyph-name="ecaron" unicode="&#x11b;" horiz-adv-x="1083" 
d="M770 1225h-184l-140 260h160l82 -172h4l148 172h168zM465 115q75 0 139.5 22.5t106.5 58t67.5 68t40.5 64.5h174q-67 -162 -206 -259.5t-326 -97.5q-238 0 -349 160t-61 414q50 253 209.5 390.5t388.5 137.5q245 0 340.5 -158t38.5 -442h-825q-19 -97 1 -176.5t87 -130.5
t174 -51zM639 930q-148 0 -265.5 -92.5t-142.5 -221.5h664q26 140 -40.5 227t-215.5 87z" />
    <glyph glyph-name="Gbreve" unicode="&#x11e;" horiz-adv-x="1503" 
d="M948 1636q-118 0 -178 71t-39 204l121 -13q-10 -75 13.5 -107t86.5 -32q135 0 176 152l121 -13q-31 -129 -111 -195.5t-190 -66.5zM1278 1028q-1 151 -95 226t-249 75q-108 0 -204.5 -36.5t-167.5 -96.5t-128 -139.5t-91.5 -164t-51.5 -171.5q-17 -85 -17.5 -165
t20.5 -157.5t63.5 -135t118.5 -93t179 -35.5q127 0 247 59.5t206.5 168t112.5 241.5l-480 -6l33 164h662l-150 -762h-121l-18 207l-6 -4q-108 -118 -227.5 -175t-272.5 -57q-207 0 -343 100t-183 274.5t-4 399.5q42 216 159 385.5t293.5 266t382.5 96.5q258 0 386.5 -129.5
t125.5 -347.5z" />
    <glyph glyph-name="gbreve" unicode="&#x11f;" horiz-adv-x="1124" 
d="M659 1217q-118 0 -178 70.5t-39 203.5l121 -12q-10 -75 14 -107.5t87 -32.5q135 0 176 152l121 -12q-31 -129 -111.5 -195.5t-190.5 -66.5zM952 1044h164l-194 -993q-39 -206 -174.5 -309.5t-350.5 -103.5q-209 0 -321.5 95t-104.5 228h160q0 -180 258 -180
q153 0 248.5 71t124.5 214l31 151l-5 -4q-142 -160 -356 -160q-100 0 -179 32.5t-132.5 97.5t-70.5 163t7 229q24 123 78.5 219.5t129 156.5t162.5 91t185 31q215 0 306 -162l8 4zM461 197q154 0 258.5 96t140.5 282q35 176 -28 265.5t-209 89.5q-160 0 -267 -101.5
t-139 -265.5q-31 -157 31.5 -261.5t212.5 -104.5z" />
    <glyph glyph-name="Gdotaccent" unicode="&#x120;" horiz-adv-x="1503" 
d="M877 1812q8 39 37.5 65t72.5 26q52 0 75.5 -33.5t14.5 -81.5q-6 -37 -35.5 -62.5t-72.5 -25.5q-52 0 -76 32.5t-16 79.5zM1278 1028q-1 151 -95 226t-249 75q-108 0 -204.5 -36.5t-167.5 -96.5t-128 -139.5t-91.5 -164t-51.5 -171.5q-17 -85 -17.5 -165t20.5 -157.5
t63.5 -135t118.5 -93t179 -35.5q127 0 247 59.5t206.5 168t112.5 241.5l-480 -6l33 164h662l-150 -762h-121l-18 207l-6 -4q-108 -118 -227.5 -175t-272.5 -57q-207 0 -343 100t-183 274.5t-4 399.5q42 216 159 385.5t293.5 266t382.5 96.5q258 0 386.5 -129.5t125.5 -347.5
z" />
    <glyph glyph-name="gdotaccent" unicode="&#x121;" horiz-adv-x="1124" 
d="M680 1280q-52 0 -75.5 33t-14.5 80q6 38 35.5 64t72.5 26q52 0 75.5 -33.5t14.5 -81.5q-6 -37 -35.5 -62.5t-72.5 -25.5zM952 1044h164l-194 -993q-39 -206 -174.5 -309.5t-350.5 -103.5q-209 0 -321.5 95t-104.5 228h160q0 -180 258 -180q153 0 248.5 71t124.5 214
l31 151l-5 -4q-142 -160 -356 -160q-100 0 -179 32.5t-132.5 97.5t-70.5 163t7 229q24 123 78.5 219.5t129 156.5t162.5 91t185 31q215 0 306 -162l8 4zM461 197q154 0 258.5 96t140.5 282q35 176 -28 265.5t-209 89.5q-160 0 -267 -101.5t-139 -265.5q-31 -157 31.5 -261.5
t212.5 -104.5z" />
    <glyph glyph-name="Gcommaaccent" unicode="&#x122;" horiz-adv-x="1503" 
d="M1278 1028q-1 151 -95 226t-249 75q-108 0 -204.5 -36.5t-167.5 -96.5t-128 -139.5t-91.5 -164t-51.5 -171.5q-17 -85 -17.5 -165t20.5 -157.5t63.5 -135t118.5 -93t179 -35.5q127 0 247 59.5t206.5 168t112.5 241.5l-480 -6l33 164h662l-150 -762h-121l-18 207l-6 -4
q-108 -118 -227.5 -175t-272.5 -57q-207 0 -343 100t-183 274.5t-4 399.5q42 216 159 385.5t293.5 266t382.5 96.5q258 0 386.5 -129.5t125.5 -347.5zM610 -328q-53 -21 -86 8.5t-20 98.5q9 44 43 72t74 28q63 0 86.5 -51t5.5 -135q-13 -76 -73 -145t-171 -89l6 86
q110 23 135 127z" />
    <glyph glyph-name="gcommaaccent" unicode="&#x123;" horiz-adv-x="1124" 
d="M672 1169q-61 0 -84.5 51t-7.5 136q7 35 23 71t44.5 75t75.5 68.5t106 39.5l-8 -86q-49 -10 -87 -51t-52 -97q53 21 86 -8t20 -98q-9 -45 -42 -73t-74 -28zM952 1044h164l-194 -993q-39 -206 -174.5 -309.5t-350.5 -103.5q-209 0 -321.5 95t-104.5 228h160
q0 -180 258 -180q153 0 248.5 71t124.5 214l31 151l-5 -4q-142 -160 -356 -160q-100 0 -179 32.5t-132.5 97.5t-70.5 163t7 229q24 123 78.5 219.5t129 156.5t162.5 91t185 31q215 0 306 -162l8 4zM461 197q154 0 258.5 96t140.5 282q35 176 -28 265.5t-209 89.5
q-160 0 -267 -101.5t-139 -265.5q-31 -157 31.5 -261.5t212.5 -104.5z" />
    <glyph glyph-name="Hbar" unicode="&#x126;" horiz-adv-x="1425" 
d="M1569 1239l-29 -143h-147l-213 -1096h-185l133 678h-782l-133 -678h-184l213 1096h-140l29 143h139l43 225h185l-43 -225h782l43 225h184l-43 -225h148zM1159 842l49 254h-782l-49 -254h782z" />
    <glyph glyph-name="hbar" unicode="&#x127;" horiz-adv-x="1085" 
d="M731 1073q75 0 134.5 -21t101.5 -64t56.5 -109t-1.5 -156l-141 -723h-164l135 694q22 109 -18 172.5t-154 63.5q-140 0 -244 -81t-127 -204l-127 -645h-164l234 1198h-139l28 143h140l22 123h164l-23 -123h308l-29 -143h-307l-56 -278l5 4q60 64 153 106.5t213 42.5z" />
    <glyph glyph-name="Imacron" unicode="&#x12a;" horiz-adv-x="548" 
d="M264 1853h529l-27 -143h-528zM369 1464h184l-285 -1464h-184z" />
    <glyph glyph-name="imacron" unicode="&#x12b;" horiz-adv-x="512" 
d="M164 1434h528l-26 -144h-529zM281 1044h163l-204 -1044h-164z" />
    <glyph glyph-name="Iogonek" unicode="&#x12e;" horiz-adv-x="460" 
d="M102 -240q48 0 111 23l-16 -127q-62 -18 -131 -18q-95 0 -137 44.5t-27 118.5q11 63 67.5 119t120.5 82l-55 -2l284 1464h185l-285 -1464h-6q-84 -58 -125 -102t-41 -88q0 -50 55 -50z" />
    <glyph glyph-name="iogonek" unicode="&#x12f;" horiz-adv-x="393" 
d="M344 1280q-52 0 -75.5 33t-14.5 80q6 38 35.5 64t72.5 26q52 0 76 -33.5t15 -81.5q-6 -37 -36 -62.5t-73 -25.5zM57 -240q48 0 111 23l-16 -127q-61 -18 -132 -18q-94 0 -136 44.5t-27 118.5q11 63 67.5 119t120.5 82l-35 -2l205 1044h164l-205 -1044h-2
q-157 -108 -170 -188q-6 -25 10 -38.5t45 -13.5z" />
    <glyph glyph-name="Idotaccent" unicode="&#x130;" horiz-adv-x="481" 
d="M387 1812q8 38 38 64.5t73 26.5q52 0 75.5 -33.5t14.5 -81.5q-6 -37 -36 -62.5t-73 -25.5q-52 0 -76 32.5t-16 79.5zM338 1464h184l-284 -1464h-185z" />
    <glyph glyph-name="dotlessi" unicode="&#x131;" horiz-adv-x="286" 
d="M164 1044h164l-205 -1044h-164z" />
    <glyph glyph-name="Kcommaaccent" unicode="&#x136;" horiz-adv-x="1314" 
d="M315 1464h185l-154 -784l889 784h227l-694 -608l449 -856h-213l-381 729l-318 -276l-90 -453h-184zM575 -328q-53 -21 -86 8.5t-20 98.5q9 44 43 72t74 28q63 0 86.5 -51t5.5 -135q-13 -76 -73 -145t-171 -89l6 86q110 23 135 127z" />
    <glyph glyph-name="kcommaaccent" unicode="&#x137;" horiz-adv-x="991" 
d="M291 1464h164l-170 -868l567 448h207l-484 -387l322 -657h-192l-261 561l-192 -149l-82 -412h-164zM403 -328q-53 -21 -86 8.5t-20 98.5q9 44 43 72t74 28q63 0 86.5 -51t5.5 -135q-13 -76 -73 -145t-171 -89l6 86q110 23 135 127z" />
    <glyph glyph-name="Lacute" unicode="&#x139;" horiz-adv-x="1138" 
d="M504 1905h196l-200 -260h-135zM315 1464h185l-252 -1300h768l-33 -164h-952z" />
    <glyph glyph-name="lacute" unicode="&#x13a;" horiz-adv-x="397" 
d="M471 1837h199l-201 -260h-137zM297 1464h164l-285 -1464h-164z" />
    <glyph glyph-name="Lcommaaccent" unicode="&#x13b;" horiz-adv-x="1138" 
d="M315 1464h185l-252 -1300h768l-33 -164h-952zM459 -328q-53 -21 -86.5 8.5t-20.5 98.5q9 44 43 72t74 28q63 0 86.5 -51t5.5 -135q-13 -76 -73 -145t-171 -89l7 86q110 23 135 127z" />
    <glyph glyph-name="lcommaaccent" unicode="&#x13c;" horiz-adv-x="448" 
d="M322 1464h163l-284 -1464h-164zM70 -328q-53 -21 -86.5 8.5t-20.5 98.5q9 44 43 72t74 28q63 0 86.5 -51t5.5 -135q-13 -76 -73 -145t-171 -89l6 86q111 24 136 127z" />
    <glyph glyph-name="Lcaron" unicode="&#x13d;" horiz-adv-x="1134" 
d="M852 1249q-69 -20 -107 17.5t-26 103.5q9 48 43 76.5t88 28.5q64 0 90 -51.5t10 -133.5q-6 -35 -25.5 -72t-51 -72.5t-82 -61t-111.5 -31.5l4 73q48 8 103 46.5t65 76.5zM311 1464h185l-252 -1300h768l-33 -164h-952z" />
    <glyph glyph-name="lcaron" unicode="&#x13e;" horiz-adv-x="473" 
d="M682 1249q-69 -20 -107 17.5t-26 103.5q9 48 43 76.5t88 28.5q64 0 90 -51.5t10 -133.5q-6 -35 -25.5 -72t-51 -72.5t-82 -61t-111.5 -31.5l4 73q48 8 103 46.5t65 76.5zM293 1464h164l-285 -1464h-164z" />
    <glyph glyph-name="Lslash" unicode="&#x141;" horiz-adv-x="1153" 
d="M262 164h768l-33 -164h-952l98 494l-159 -103l28 158l160 102l158 813h184l-133 -678l403 258l-28 -157l-402 -258z" />
    <glyph glyph-name="lslash" unicode="&#x142;" horiz-adv-x="493" 
d="M582 1028l-27 -158l-178 -112l-150 -758h-164l127 641l-167 -106l26 157l170 107l129 665h164l-106 -549z" />
    <glyph glyph-name="Nacute" unicode="&#x143;" horiz-adv-x="1413" 
d="M985 1905h197l-201 -260h-135zM31 0l284 1464h226l495 -1206h6l234 1206h184l-284 -1464h-224l-497 1202h-4l-236 -1202h-184z" />
    <glyph glyph-name="nacute" unicode="&#x144;" horiz-adv-x="1073" 
d="M934 1485l-199 -260h-137l139 260h197zM719 1073q75 0 134.5 -21t101.5 -64t56.5 -109t-1.5 -156l-142 -723h-163l135 694q22 109 -18 172.5t-154 63.5q-140 0 -244 -81t-127 -204l-127 -645h-164l205 1044h164l-27 -124l4 4q60 64 153.5 106.5t213.5 42.5z" />
    <glyph glyph-name="Ncommaaccent" unicode="&#x145;" horiz-adv-x="1413" 
d="M31 0l284 1464h226l495 -1206h6l234 1206h184l-284 -1464h-224l-497 1202h-4l-236 -1202h-184zM555 -328q-53 -21 -86 8.5t-20 98.5q9 44 42.5 72t73.5 28q63 0 86.5 -51t5.5 -135q-13 -76 -72.5 -145t-170.5 -89l6 86q110 23 135 127z" />
    <glyph glyph-name="ncommaaccent" unicode="&#x146;" horiz-adv-x="1073" 
d="M719 1073q75 0 134.5 -21t101.5 -64t56.5 -109t-1.5 -156l-142 -723h-163l135 694q22 109 -18 172.5t-154 63.5q-140 0 -244 -81t-127 -204l-127 -645h-164l205 1044h164l-27 -124l4 4q60 64 153.5 106.5t213.5 42.5zM399 -121q63 0 87 -51t6 -135q-13 -76 -73 -145
t-171 -89l6 86q110 23 135 127q-53 -21 -86 8.5t-20 98.5q9 44 42.5 72t73.5 28z" />
    <glyph glyph-name="Ncaron" unicode="&#x147;" horiz-adv-x="1413" 
d="M690 1905h160l82 -172h4l147 172h168l-239 -260h-185zM31 0l284 1464h226l495 -1206h6l234 1206h184l-284 -1464h-224l-497 1202h-4l-236 -1202h-184z" />
    <glyph glyph-name="ncaron" unicode="&#x148;" horiz-adv-x="1073" 
d="M766 1225h-184l-140 260h160l82 -172h4l148 172h168zM719 1073q75 0 134.5 -21t101.5 -64t56.5 -109t-1.5 -156l-142 -723h-163l135 694q22 109 -18 172.5t-154 63.5q-140 0 -244 -81t-127 -204l-127 -645h-164l205 1044h164l-27 -124l4 4q60 64 153.5 106.5t213.5 42.5z
" />
    <glyph glyph-name="Eng" unicode="&#x14a;" horiz-adv-x="1415" 
d="M31 0l284 1464h226l495 -1206h6l234 1206h184l-284 -1470q-19 -96 -59 -167t-96.5 -112t-122.5 -60.5t-144 -19.5q-66 0 -117 15l16 141q125 -14 209.5 27.5t108.5 148.5l-516 1235h-4l-236 -1202h-184z" />
    <glyph glyph-name="eng" unicode="&#x14b;" horiz-adv-x="1073" 
d="M850 -78q-29 -149 -101.5 -205.5t-185.5 -56.5q-64 0 -125 14l19 142q108 -8 162.5 20.5t72.5 114.5l144 743q22 109 -18 172.5t-154 63.5q-140 0 -244 -81t-127 -204l-127 -645h-164l205 1044h164l-27 -124l4 4q60 64 153.5 106.5t213.5 42.5q75 0 134.5 -21t101.5 -64
t56.5 -109t-1.5 -156z" />
    <glyph glyph-name="Omacron" unicode="&#x14c;" horiz-adv-x="1556" 
d="M762 1853h528l-26 -143h-529zM678 -29q-128 0 -234.5 37.5t-180.5 106.5t-120.5 165t-55 213t14.5 252q42 216 162.5 386t300.5 266t389 96q214 0 361 -99.5t203.5 -275t13.5 -397.5q-42 -216 -162.5 -386t-301.5 -267t-390 -97zM692 135q109 0 205.5 32.5t170.5 89.5
t132.5 134.5t95.5 166.5t56 187q16 94 16 179.5t-29 159.5t-77.5 128.5t-130.5 85.5t-189 31q-135 0 -250.5 -49.5t-196.5 -134.5t-135 -192.5t-77 -231.5q-15 -78 -15.5 -150.5t14 -138.5t47.5 -120t81.5 -93.5t120.5 -61.5t161 -22z" />
    <glyph glyph-name="omacron" unicode="&#x14d;" horiz-adv-x="1120" 
d="M465 1434h528l-26 -144h-529zM444 -29q-233 0 -338 148t-59 391q48 252 219.5 407.5t411.5 155.5q232 0 336.5 -147.5t58.5 -390.5q-48 -252 -219 -408t-410 -156zM477 115q164 0 275.5 111t152.5 284q22 86 14.5 162.5t-36 133.5t-90 90.5t-148.5 33.5q-165 0 -277 -111
t-153 -284q-22 -86 -14.5 -162.5t36.5 -133.5t91 -90.5t149 -33.5z" />
    <glyph glyph-name="Ohungarumlaut" unicode="&#x150;" horiz-adv-x="1556" 
d="M893 1905h197l-201 -260h-135zM1184 1905h196l-200 -260h-136zM678 -29q-128 0 -234.5 37.5t-180.5 106.5t-120.5 165t-55 213t14.5 252q42 216 162.5 386t300.5 266t389 96q214 0 361 -99.5t203.5 -275t13.5 -397.5q-42 -216 -162.5 -386t-301.5 -267t-390 -97zM692 135
q109 0 205.5 32.5t170.5 89.5t132.5 134.5t95.5 166.5t56 187q16 94 16 179.5t-29 159.5t-77.5 128.5t-130.5 85.5t-189 31q-135 0 -250.5 -49.5t-196.5 -134.5t-135 -192.5t-77 -231.5q-15 -78 -15.5 -150.5t14 -138.5t47.5 -120t81.5 -93.5t120.5 -61.5t161 -22z" />
    <glyph glyph-name="ohungarumlaut" unicode="&#x151;" horiz-adv-x="1120" 
d="M596 1485h197l-199 -260h-137zM887 1485h196l-198 -260h-137zM444 -29q-233 0 -338 148t-59 391q48 252 219.5 407.5t411.5 155.5q232 0 336.5 -147.5t58.5 -390.5q-48 -252 -219 -408t-410 -156zM477 115q164 0 275.5 111t152.5 284q22 86 14.5 162.5t-36 133.5
t-90 90.5t-148.5 33.5q-165 0 -277 -111t-153 -284q-22 -86 -14.5 -162.5t36.5 -133.5t91 -90.5t149 -33.5z" />
    <glyph glyph-name="OE" unicode="&#x152;" horiz-adv-x="2174" 
d="M1155 164h875l-33 -164h-1059l29 125q-168 -154 -404 -154q-173 0 -291.5 100t-161 276.5t0.5 397.5q42 215 149 385.5t259 266.5t321 96q245 0 354 -162l29 133h1034l-31 -164h-850l-90 -460h752l-31 -164h-752zM618 135q107 0 207.5 53t178.5 156l157 786
q-38 101 -114.5 150t-178.5 49q-120 0 -220.5 -49t-170.5 -135t-116 -192.5t-70 -231.5q-18 -96 -20 -180t16.5 -159.5t58 -129.5t109 -85.5t163.5 -31.5z" />
    <glyph glyph-name="oe" unicode="&#x153;" horiz-adv-x="1949" 
d="M1892 473h-825q-19 -97 1 -176.5t87 -130.5t174 -51q75 0 139.5 22.5t106.5 58t67.5 68t40.5 64.5h175q-67 -162 -206.5 -259.5t-326.5 -97.5q-146 0 -246.5 63.5t-144.5 176.5q-87 -114 -213 -177t-275 -63q-233 0 -338 148t-59 391q48 252 219.5 407.5t411.5 155.5
q139 0 234.5 -56t138.5 -157q83 104 201 158.5t259 54.5q245 0 340.5 -158t38.5 -442zM479 115q164 0 275.5 111t152.5 284q22 86 14.5 162.5t-36 133.5t-90 90.5t-148.5 33.5q-165 0 -277 -111t-153 -284q-22 -86 -14.5 -162.5t36.5 -133.5t91 -90.5t149 -33.5zM1503 930
q-148 0 -265 -92.5t-142 -221.5h663q26 140 -40.5 227t-215.5 87z" />
    <glyph glyph-name="Racute" unicode="&#x154;" horiz-adv-x="1257" 
d="M899 1905h197l-201 -260h-135zM31 0l284 1464h590q219 0 331.5 -115.5t74.5 -312.5q-59 -293 -326 -358l-12 -4q64 -13 103 -55t52 -100t14 -125t-7.5 -132.5t-16 -120t-7 -90.5t14.5 -41l2 -10l-192 4q-10 11 -7.5 36.5t6.5 62.5t13.5 80.5t13 90.5t5 92.5t-10.5 86.5
t-33.5 72t-64 49t-102.5 18h-424l-117 -592h-184zM469 1300l-107 -544h363q54 0 96 4.5t95 21t91.5 46t71 83.5t47.5 129q8 40 8 74t-6.5 59t-20.5 44.5t-29.5 33t-39.5 23t-45 14.5t-50 8t-51 3.5t-52 0.5h-371z" />
    <glyph glyph-name="racute" unicode="&#x155;" horiz-adv-x="700" 
d="M778 1485l-198 -260h-138l140 260h196zM664 1073q58 0 98 -6l-27 -164q-163 27 -293 -77t-163 -275l-109 -551h-164l205 1044h164l-43 -206l6 6q66 111 144.5 170t181.5 59z" />
    <glyph glyph-name="Rcommaaccent" unicode="&#x156;" horiz-adv-x="1257" 
d="M31 0l284 1464h590q219 0 331.5 -115.5t74.5 -312.5q-59 -293 -326 -358l-12 -4q64 -13 103 -55t52 -100t14 -125t-7.5 -132.5t-16 -120t-7 -90.5t14.5 -41l2 -10l-192 4q-10 11 -7.5 36.5t6.5 62.5t13.5 80.5t13 90.5t5 92.5t-10.5 86.5t-33.5 72t-64 49t-102.5 18h-424
l-117 -592h-184zM469 1300l-107 -544h363q54 0 96 4.5t95 21t91.5 46t71 83.5t47.5 129q8 40 8 74t-6.5 59t-20.5 44.5t-29.5 33t-39.5 23t-45 14.5t-50 8t-51 3.5t-52 0.5h-371zM510 -328q-53 -21 -86.5 8.5t-20.5 98.5q9 44 43 72t74 28q63 0 86.5 -51t5.5 -135
q-13 -76 -72.5 -145t-170.5 -89l6 86q110 23 135 127z" />
    <glyph glyph-name="rcommaaccent" unicode="&#x157;" horiz-adv-x="720" 
d="M684 1073q58 0 98 -6l-26 -164q-163 27 -293.5 -77t-163.5 -275l-109 -551h-163l204 1044h164l-43 -206l6 6q66 111 144.5 170t181.5 59zM74 -121q63 0 86.5 -51t5.5 -135q-13 -76 -73 -145t-171 -89l6 86q110 23 135 127q-53 -21 -86 8.5t-20 98.5q9 44 43 72t74 28z
" />
    <glyph glyph-name="Rcaron" unicode="&#x158;" horiz-adv-x="1257" 
d="M604 1905h160l82 -172h4l147 172h168l-239 -260h-185zM31 0l284 1464h590q219 0 331.5 -115.5t74.5 -312.5q-59 -293 -326 -358l-12 -4q64 -13 103 -55t52 -100t14 -125t-7.5 -132.5t-16 -120t-7 -90.5t14.5 -41l2 -10l-192 4q-10 11 -7.5 36.5t6.5 62.5t13.5 80.5
t13 90.5t5 92.5t-10.5 86.5t-33.5 72t-64 49t-102.5 18h-424l-117 -592h-184zM469 1300l-107 -544h363q54 0 96 4.5t95 21t91.5 46t71 83.5t47.5 129q8 40 8 74t-6.5 59t-20.5 44.5t-29.5 33t-39.5 23t-45 14.5t-50 8t-51 3.5t-52 0.5h-371z" />
    <glyph glyph-name="rcaron" unicode="&#x159;" horiz-adv-x="681" 
d="M598 1225h-184l-140 260h160l82 -172h4l148 172h168zM651 1073q59 0 99 -6l-27 -164q-163 27 -293.5 -77t-163.5 -275l-108 -551h-164l205 1044h163l-43 -206l7 6q66 111 144 170t181 59z" />
    <glyph glyph-name="Sacute" unicode="&#x15a;" horiz-adv-x="1255" 
d="M877 1905h196l-201 -260h-135zM700 852q60 -23 101.5 -40.5t91.5 -41t82.5 -43.5t68.5 -47t57 -54t40 -61.5t25.5 -72.5t6 -84t-11.5 -99q-33 -159 -175.5 -248.5t-381.5 -89.5q-132 0 -245 35.5t-193.5 99.5t-119.5 162.5t-23 216.5h180q-14 -158 91 -254t324 -96
q163 0 252 48.5t111 150.5q7 33 7.5 60.5t-6.5 53t-20 47t-36 43t-51.5 40t-69.5 39t-86.5 39.5t-106.5 42q-169 64 -241 108q-183 112 -174 295q2 29 8 60q21 109 98.5 185t190.5 111.5t254 35.5q159 0 275.5 -53t174.5 -157.5t41 -246.5h-180q9 147 -72 220t-252 73
q-140 0 -235 -41.5t-113 -130.5q-12 -63 2.5 -108.5t58.5 -78t89 -53.5t122 -50q27 -10 41 -15z" />
    <glyph glyph-name="sacute" unicode="&#x15b;" horiz-adv-x="970" 
d="M672 1485h196l-198 -260h-138zM530 612q32 -9 57.5 -17.5t56 -19.5t54 -23t49.5 -27t44.5 -32t36.5 -37.5t28.5 -45t17.5 -52t6.5 -60t-8.5 -69.5q-28 -131 -137 -194.5t-264 -63.5q-222 0 -347.5 103.5t-125.5 267.5h162q0 -98 77.5 -162.5t243.5 -64.5
q102 0 160.5 36.5t69.5 96.5q4 21 4.5 40t-4 35t-10.5 29.5t-18 25.5t-23.5 21.5t-30 18.5t-34 16t-39 15t-42 13.5t-45.5 12.5q-57 16 -99 30.5t-98.5 46t-89.5 69.5t-51 98.5t-4 134.5q20 103 122 161t267 58q189 0 296.5 -93.5t107.5 -227.5h-160q0 71 -61 124.5
t-193 53.5q-97 0 -155 -29.5t-66 -81.5q-7 -47 6.5 -80.5t50.5 -56t74.5 -36t101.5 -31.5z" />
    <glyph glyph-name="Scedilla" unicode="&#x15e;" horiz-adv-x="1255" 
d="M1239 1036h-180q9 147 -72 220t-252 73q-140 0 -235 -41.5t-113 -130.5q-12 -63 2.5 -108.5t58.5 -78t89 -53.5t122 -50q27 -10 41 -15q60 -23 101.5 -40.5t91.5 -41t82.5 -43.5t68.5 -47t57 -54t40 -61.5t25.5 -72.5t6 -84t-11.5 -99q-31 -154 -165 -243t-359 -95
l-94 -92l-11 -4q45 7 88 -3.5t71.5 -44.5t19.5 -87q-13 -65 -81.5 -103t-150.5 -38q-64 0 -122 18t-93 45l45 45q76 -29 144 -29q55 0 94 26t45 63q4 25 -14 34t-70 9q-50 0 -88 -17l-23 41l138 139q-119 9 -219 48.5t-171 103.5t-104.5 157t-17.5 203h180q-14 -158 91 -254
t324 -96q163 0 252 48.5t111 150.5q7 33 7.5 60.5t-6.5 53t-20 47t-36 43t-51.5 40t-69.5 39t-86.5 39.5t-106.5 42q-169 64 -241 108q-183 112 -174 295q2 29 8 60q21 109 98.5 185t190.5 111.5t254 35.5q159 0 275.5 -53t174.5 -157.5t41 -246.5z" />
    <glyph glyph-name="scedilla" unicode="&#x15f;" horiz-adv-x="970" 
d="M530 612q32 -9 57.5 -17.5t56 -19.5t54 -23t49.5 -27t44.5 -32t36.5 -37.5t28.5 -45t17.5 -52t6.5 -60t-8.5 -69.5q-28 -131 -137 -194.5t-264 -63.5q-29 0 -43 2l-100 -94l-11 -4q45 7 88 -3.5t71.5 -44.5t19.5 -87q-13 -65 -81.5 -103t-150.5 -38q-64 0 -122 18t-93 45
l45 45q76 -29 144 -29q55 0 94 26t45 63q4 25 -14.5 34t-69.5 9q-50 0 -88 -17l-23 41l144 150l14 -2q-163 29 -252.5 125.5t-89.5 234.5h162q0 -98 77.5 -162.5t243.5 -64.5q102 0 160.5 36.5t69.5 96.5q4 21 4.5 40t-4 35t-10.5 29.5t-18 25.5t-23.5 21.5t-30 18.5t-34 16
t-39 15t-42 13.5t-45.5 12.5q-57 16 -99 30.5t-98.5 46t-89.5 69.5t-51 98.5t-4 134.5q20 103 122 161t267 58q189 0 296.5 -93.5t107.5 -227.5h-160q0 71 -61 124.5t-193 53.5q-97 0 -155 -29.5t-66 -81.5q-7 -47 6.5 -80.5t50.5 -56t74.5 -36t101.5 -31.5z" />
    <glyph glyph-name="Scaron" unicode="&#x160;" horiz-adv-x="1255" 
d="M582 1905h159l82 -172h4l148 172h168l-240 -260h-184zM700 852q60 -23 101.5 -40.5t91.5 -41t82.5 -43.5t68.5 -47t57 -54t40 -61.5t25.5 -72.5t6 -84t-11.5 -99q-33 -159 -175.5 -248.5t-381.5 -89.5q-132 0 -245 35.5t-193.5 99.5t-119.5 162.5t-23 216.5h180
q-14 -158 91 -254t324 -96q163 0 252 48.5t111 150.5q7 33 7.5 60.5t-6.5 53t-20 47t-36 43t-51.5 40t-69.5 39t-86.5 39.5t-106.5 42q-169 64 -241 108q-183 112 -174 295q2 29 8 60q21 109 98.5 185t190.5 111.5t254 35.5q159 0 275.5 -53t174.5 -157.5t41 -246.5h-180
q9 147 -72 220t-252 73q-140 0 -235 -41.5t-113 -130.5q-12 -63 2.5 -108.5t58.5 -78t89 -53.5t122 -50q27 -10 41 -15z" />
    <glyph glyph-name="scaron" unicode="&#x161;" horiz-adv-x="970" 
d="M377 1485h160l81 -172h5l147 172h168l-238 -260h-184zM530 612q32 -9 57.5 -17.5t56 -19.5t54 -23t49.5 -27t44.5 -32t36.5 -37.5t28.5 -45t17.5 -52t6.5 -60t-8.5 -69.5q-28 -131 -137 -194.5t-264 -63.5q-222 0 -347.5 103.5t-125.5 267.5h162q0 -98 77.5 -162.5
t243.5 -64.5q102 0 160.5 36.5t69.5 96.5q4 21 4.5 40t-4 35t-10.5 29.5t-18 25.5t-23.5 21.5t-30 18.5t-34 16t-39 15t-42 13.5t-45.5 12.5q-57 16 -99 30.5t-98.5 46t-89.5 69.5t-51 98.5t-4 134.5q20 103 122 161t267 58q189 0 296.5 -93.5t107.5 -227.5h-160
q0 71 -61 124.5t-193 53.5q-97 0 -155 -29.5t-66 -81.5q-7 -47 6.5 -80.5t50.5 -56t74.5 -36t101.5 -31.5z" />
    <glyph glyph-name="uni0162" unicode="&#x162;" horiz-adv-x="1249" 
d="M584 0l-105 -106l-8 -5q45 7 87.5 -3.5t71 -44.5t17.5 -87q-13 -65 -81 -103t-150 -38q-64 0 -121.5 18t-91.5 45l45 45q70 -28 143 -28q53 0 92 25.5t47 62.5q4 24 -15 33.5t-71 9.5q-50 0 -88 -17l-22 41l145 152h-49l254 1300h-487l30 164h1159l-30 -164h-488
l-254 -1300h-30z" />
    <glyph glyph-name="uni0163" unicode="&#x163;" horiz-adv-x="604" 
d="M262 -117q45 7 87.5 -3.5t71 -44.5t19.5 -87q-13 -65 -81.5 -103t-149.5 -38q-65 0 -122 17.5t-93 45.5l45 45q70 -28 143 -28q53 0 92.5 25.5t47.5 62.5q4 25 -14 34t-70 9q-54 0 -88 -17l-25 41l151 152q-81 13 -117.5 78t-13.5 190l125 639h-153l28 143h154l68 349
h163l-67 -349h205l-29 -143h-205l-123 -635q-18 -85 22 -108t154 -15l-18 -145q-32 -6 -92 -10l-107 -101z" />
    <glyph glyph-name="Tcaron" unicode="&#x164;" horiz-adv-x="1226" 
d="M596 1905h160l82 -172h4l147 172h168l-239 -260h-185zM418 0l254 1300h-488l31 164h1159l-31 -164h-487l-254 -1300h-184z" />
    <glyph glyph-name="tcaron" unicode="&#x165;" horiz-adv-x="665" 
d="M778 1577q66 0 92 -51t11 -133q-7 -36 -26.5 -72.5t-51.5 -72.5t-82.5 -61.5t-110.5 -31.5l4 74q48 8 102 46.5t66 76.5q-69 -20 -107 17.5t-26 103.5q9 47 42.5 75.5t86.5 28.5zM528 1393l-67 -349h205l-29 -143h-205l-123 -635q-18 -85 22 -108t154 -15l-18 -145
q-49 -10 -121 -10q-256 0 -203 274l125 639h-153l28 143h154l68 349h163z" />
    <glyph glyph-name="Tbar" unicode="&#x166;" horiz-adv-x="1214" 
d="M1343 1300h-487l-92 -471h326l-27 -143h-326l-135 -686h-184l135 686h-326l27 143h326l92 471h-488l31 164h1159z" />
    <glyph glyph-name="tbar" unicode="&#x167;" horiz-adv-x="604" 
d="M573 567h-206l-58 -301q-18 -85 22 -108t154 -15l-18 -145q-49 -10 -121 -10q-256 0 -203 274l60 305h-152l29 144h151l37 190h-153l28 143h154l68 349h163l-67 -349h205l-29 -143h-205l-37 -190h207z" />
    <glyph glyph-name="Umacron" unicode="&#x16a;" horiz-adv-x="1343" 
d="M655 1853h529l-27 -143h-528zM1223 481q-45 -235 -209 -372.5t-443 -137.5q-116 0 -206 25.5t-146.5 72.5t-90 112t-37.5 144t11 169l189 970h184l-190 -983q-34 -178 39.5 -262t261.5 -84q386 0 454 359l189 970h184z" />
    <glyph glyph-name="umacron" unicode="&#x16b;" horiz-adv-x="1069" 
d="M956 1434l-26 -144h-529l27 144h528zM897 1044h164l-205 -1044h-164l27 125l-4 -4q-61 -64 -154 -107t-213 -43q-75 0 -134.5 21t-101.5 64.5t-56.5 109.5t1.5 156l142 722h163l-135 -694q-22 -108 18 -171.5t154 -63.5q140 0 244 80.5t127 203.5z" />
    <glyph glyph-name="Uring" unicode="&#x16e;" horiz-adv-x="1343" 
d="M877 1614q-78 0 -122.5 53.5t-29.5 136.5q13 72 72 120t129 48q78 0 124 -55t29 -137q-15 -73 -73 -119.5t-129 -46.5zM881 1696q47 0 77.5 28t38.5 72q9 45 -13 69.5t-62 24.5q-49 0 -79 -28t-38 -72q-9 -46 12.5 -70t63.5 -24zM1223 481q-45 -235 -209 -372.5
t-443 -137.5q-116 0 -206 25.5t-146.5 72.5t-90 112t-37.5 144t11 169l189 970h184l-190 -983q-34 -178 39.5 -262t261.5 -84q386 0 454 359l189 970h184z" />
    <glyph glyph-name="uring" unicode="&#x16f;" horiz-adv-x="1069" 
d="M662 1194q-79 0 -124 53.5t-28 136.5q13 72 72 120t129 48q78 0 123 -55t30 -137q-15 -73 -73 -119.5t-129 -46.5zM666 1276q47 0 77.5 28t38.5 72q9 45 -13 69.5t-62 24.5q-48 0 -77.5 -28t-39.5 -72q-9 -46 12.5 -70t63.5 -24zM897 1044h164l-205 -1044h-164l27 125
l-4 -4q-61 -64 -154 -107t-213 -43q-75 0 -134.5 21t-101.5 64.5t-56.5 109.5t1.5 156l142 722h163l-135 -694q-22 -108 18 -171.5t154 -63.5q140 0 244 80.5t127 203.5z" />
    <glyph glyph-name="Uhungarumlaut" unicode="&#x170;" horiz-adv-x="1343" 
d="M786 1905h197l-201 -260h-135zM1077 1905h197l-201 -260h-135zM1223 481q-45 -235 -209 -372.5t-443 -137.5q-116 0 -206 25.5t-146.5 72.5t-90 112t-37.5 144t11 169l189 970h184l-190 -983q-34 -178 39.5 -262t261.5 -84q386 0 454 359l189 970h184z" />
    <glyph glyph-name="uhungarumlaut" unicode="&#x171;" horiz-adv-x="1069" 
d="M756 1485l-199 -260h-137l139 260h197zM1047 1485l-199 -260h-137l139 260h197zM770 399l127 645h164l-205 -1044h-164l27 125l-4 -4q-61 -64 -154 -107t-213 -43q-75 0 -134.5 21t-101.5 64.5t-56.5 109.5t1.5 156l142 722h163l-135 -694q-22 -108 18 -171.5t154 -63.5
q140 0 244 80.5t127 203.5z" />
    <glyph glyph-name="Uogonek" unicode="&#x172;" horiz-adv-x="1343" 
d="M1229 1464h184l-190 -983q-35 -183 -141 -309t-285 -178q-167 -107 -179 -182q-6 -25 10.5 -38.5t45.5 -13.5q47 0 110 23l-16 -127q-62 -18 -131 -18q-95 0 -137 44.5t-27 118.5q9 51 47.5 97.5t93.5 76.5q-14 -4 -43 -4q-116 0 -206 25.5t-146.5 72.5t-90 112
t-37.5 144t11 169l189 970h184l-190 -983q-34 -178 39.5 -262t261.5 -84q386 0 454 359z" />
    <glyph glyph-name="uogonek" unicode="&#x173;" horiz-adv-x="1071" 
d="M735 -240q48 0 111 23l-17 -127q-61 -18 -131 -18q-94 0 -136 44.5t-27 118.5q11 63 67.5 119t120.5 82l-31 -2l27 125l-4 -4q-61 -64 -154 -107t-213 -43q-75 0 -134.5 21t-101.5 64.5t-56.5 109.5t1.5 156l142 722h163l-135 -694q-22 -108 18 -171.5t154 -63.5
q140 0 244 80.5t127 203.5l127 645h164l-203 -1044h-4q-162 -111 -174 -188q-6 -25 10 -38.5t45 -13.5z" />
    <glyph glyph-name="Wcircumflex" unicode="&#x174;" horiz-adv-x="1853" 
d="M844 1645l237 260h185l139 -260h-162l-80 172h-4l-149 -172h-166zM195 1464h192l45 -1200h4l561 1200h205l94 -1200h4l512 1200h197l-647 -1464h-205l-94 1255h-4l-582 -1255h-205z" />
    <glyph glyph-name="wcircumflex" unicode="&#x175;" horiz-adv-x="1503" 
d="M590 1225l237 260h185l139 -260h-160l-82 172h-4l-147 -172h-168zM104 1044h179l69 -866h4l402 866h174l67 -866h5l405 866h182l-536 -1044h-174l-68 862h-4l-399 -862h-174z" />
    <glyph glyph-name="Ycircumflex" unicode="&#x176;" horiz-adv-x="1236" 
d="M537 1645l237 260h184l140 -260h-162l-80 172h-4l-150 -172h-165zM168 1464h197l282 -716h4l568 716h200l-702 -864l-119 -600h-184l118 600z" />
    <glyph glyph-name="ycircumflex" unicode="&#x177;" horiz-adv-x="1001" 
d="M338 1225l237 260h185l139 -260h-160l-82 172h-4l-147 -172h-168zM1092 1044l-666 -1136q-65 -109 -101 -150q-98 -109 -233 -110q-67 0 -141 22l20 121h19q71 -6 122.5 7.5t98.5 58.5q48 39 80 102.5t20 132.5l-213 952h183l153 -851h4l467 851h187z" />
    <glyph glyph-name="Ydieresis" unicode="&#x178;" horiz-adv-x="1236" 
d="M598 1812q8 38 38 64.5t73 26.5q52 0 75.5 -33.5t14.5 -81.5q-6 -37 -36 -62.5t-73 -25.5q-52 0 -76 32.5t-16 79.5zM905 1812q8 38 38 64.5t73 26.5q52 0 75.5 -33.5t14.5 -81.5q-6 -37 -36 -62.5t-73 -25.5q-52 0 -76 32.5t-16 79.5zM168 1464h197l282 -716h4l568 716
h200l-702 -864l-119 -600h-184l118 600z" />
    <glyph glyph-name="Zacute" unicode="&#x179;" horiz-adv-x="1249" 
d="M907 1905h197l-201 -260h-135zM283 1464h1077l-29 -164l-1114 -1132l-2 -4h913l-32 -164h-1139l31 164l1114 1132l2 4h-852z" />
    <glyph glyph-name="zacute" unicode="&#x17a;" horiz-adv-x="940" 
d="M682 1485h197l-199 -260h-137zM-25 123l742 774l2 4h-555l29 143h786l-18 -98l-764 -799l-2 -4h630l-28 -143h-844z" />
    <glyph glyph-name="Zdotaccent" unicode="&#x17b;" horiz-adv-x="1249" 
d="M768 1812q8 38 38 64.5t73 26.5q52 0 75.5 -33.5t14.5 -81.5q-6 -37 -36 -62.5t-73 -25.5q-52 0 -76 32.5t-16 79.5zM283 1464h1077l-29 -164l-1114 -1132l-2 -4h913l-32 -164h-1139l31 164l1114 1132l2 4h-852z" />
    <glyph glyph-name="zdotaccent" unicode="&#x17c;" horiz-adv-x="940" 
d="M545 1393q6 38 35.5 64t72.5 26q52 0 75.5 -33.5t14.5 -81.5q-6 -37 -35.5 -62.5t-72.5 -25.5q-52 0 -75.5 33t-14.5 80zM-25 123l742 774l2 4h-555l29 143h786l-18 -98l-764 -799l-2 -4h630l-28 -143h-844z" />
    <glyph glyph-name="Zcaron" unicode="&#x17d;" horiz-adv-x="1249" 
d="M612 1905h160l82 -172h4l148 172h168l-240 -260h-184zM283 1464h1077l-29 -164l-1114 -1132l-2 -4h913l-32 -164h-1139l31 164l1114 1132l2 4h-852z" />
    <glyph glyph-name="zcaron" unicode="&#x17e;" horiz-adv-x="940" 
d="M387 1485h160l82 -172h4l147 172h168l-237 -260h-185zM-25 123l742 774l2 4h-555l29 143h786l-18 -98l-764 -799l-2 -4h630l-28 -143h-844z" />
    <glyph glyph-name="Scommaaccent" unicode="&#x218;" horiz-adv-x="1255" 
d="M700 852q60 -23 101.5 -40.5t91.5 -41t82.5 -43.5t68.5 -47t57 -54t40 -61.5t25.5 -72.5t6 -84t-11.5 -99q-33 -159 -175.5 -248.5t-381.5 -89.5q-132 0 -245 35.5t-193.5 99.5t-119.5 162.5t-23 216.5h180q-14 -158 91 -254t324 -96q163 0 252 48.5t111 150.5
q7 33 7.5 60.5t-6.5 53t-20 47t-36 43t-51.5 40t-69.5 39t-86.5 39.5t-106.5 42q-169 64 -241 108q-183 112 -174 295q2 29 8 60q21 109 98.5 185t190.5 111.5t254 35.5q159 0 275.5 -53t174.5 -157.5t41 -246.5h-180q9 147 -72 220t-252 73q-140 0 -235 -41.5t-113 -130.5
q-12 -63 2.5 -108.5t58.5 -78t89 -53.5t122 -50q27 -10 41 -15zM539 -328q-53 -21 -86.5 8.5t-20.5 98.5q9 44 43 72t74 28q63 0 86.5 -51t5.5 -135q-13 -76 -73 -145t-171 -89l6 86q111 24 136 127z" />
    <glyph glyph-name="scommaaccent" unicode="&#x219;" horiz-adv-x="970" 
d="M530 612q32 -9 57.5 -17.5t56 -19.5t54 -23t49.5 -27t44.5 -32t36.5 -37.5t28.5 -45t17.5 -52t6.5 -60t-8.5 -69.5q-28 -131 -137 -194.5t-264 -63.5q-222 0 -347.5 103.5t-125.5 267.5h162q0 -98 77.5 -162.5t243.5 -64.5q102 0 160.5 36.5t69.5 96.5q4 21 4.5 40t-4 35
t-10.5 29.5t-18 25.5t-23.5 21.5t-30 18.5t-34 16t-39 15t-42 13.5t-45.5 12.5q-57 16 -99 30.5t-98.5 46t-89.5 69.5t-51 98.5t-4 134.5q20 103 122 161t267 58q189 0 296.5 -93.5t107.5 -227.5h-160q0 71 -61 124.5t-193 53.5q-97 0 -155 -29.5t-66 -81.5
q-7 -47 6.5 -80.5t50.5 -56t74.5 -36t101.5 -31.5zM324 -328q-53 -21 -86.5 8.5t-20.5 98.5q9 44 43 72t74 28q63 0 86.5 -51t5.5 -135q-13 -76 -73 -145t-171 -89l6 86q111 24 136 127z" />
    <glyph glyph-name="uni021A" unicode="&#x21a;" horiz-adv-x="1226" 
d="M418 0l254 1300h-488l31 164h1159l-31 -164h-487l-254 -1300h-184zM465 -313q-55 -21 -87.5 7.5t-19.5 98.5q9 45 42.5 73t74.5 28q61 0 84.5 -51t7.5 -136q-15 -77 -74 -145t-171 -88l6 86q112 23 137 127z" />
    <glyph glyph-name="uni021B" unicode="&#x21b;" horiz-adv-x="604" 
d="M639 901h-205l-123 -635q-18 -85 22 -108t154 -15l-18 -145q-49 -10 -121 -10q-256 0 -203 274l125 639h-153l28 143h154l68 349h163l-67 -349h205zM279 -113q61 0 84.5 -50.5t7.5 -135.5q-15 -77 -74.5 -145t-171.5 -88l8 86q110 23 135 127q-53 -21 -86 8t-20 98
q9 45 42.5 72.5t74.5 27.5z" />
    <glyph glyph-name="circumflex" unicode="&#x2c6;" horiz-adv-x="1015" 
d="M356 1225l238 260h184l140 -260h-160l-82 172h-4l-148 -172h-168z" />
    <glyph glyph-name="caron" unicode="&#x2c7;" horiz-adv-x="1015" 
d="M414 1485h159l82 -172h4l148 172h168l-238 -260h-184z" />
    <glyph glyph-name="breve" unicode="&#x2d8;" horiz-adv-x="1015" 
d="M641 1217q-118 0 -178 70.5t-39 203.5l121 -12q-10 -75 13.5 -107.5t86.5 -32.5q135 0 176 152l121 -12q-31 -129 -111 -195.5t-190 -66.5z" />
    <glyph glyph-name="dotaccent" unicode="&#x2d9;" horiz-adv-x="1050" 
d="M590 1393q6 38 35.5 64t72.5 26q52 0 75.5 -33.5t14.5 -81.5q-6 -37 -35.5 -62.5t-72.5 -25.5q-52 0 -75.5 33t-14.5 80z" />
    <glyph glyph-name="ring" unicode="&#x2da;" horiz-adv-x="1021" 
d="M653 1194q-78 0 -122 53.5t-29 136.5q13 72 71.5 120t128.5 48q78 0 124.5 -55t29.5 -137q-15 -73 -73.5 -119.5t-129.5 -46.5zM657 1276q47 0 78 28.5t39 71.5q9 45 -13.5 69.5t-62.5 24.5q-49 0 -78.5 -28t-37.5 -72q-9 -46 12.5 -70t62.5 -24z" />
    <glyph glyph-name="ogonek" unicode="&#x2db;" horiz-adv-x="1015" 
d="M285 -362q-95 0 -137 44.5t-27 118.5q11 63 67.5 119t120.5 82l131 -6q-163 -112 -174 -184q-6 -25 10.5 -38.5t45.5 -13.5q47 0 110 23l-16 -127q-62 -18 -131 -18z" />
    <glyph glyph-name="tilde" unicode="&#x2dc;" horiz-adv-x="1026" 
d="M371 1282q19 96 68.5 141t109.5 45q45 0 92.5 -18t85 -36.5t57.5 -18.5q56 0 72 75l121 -12q-20 -98 -68.5 -142t-109.5 -44q-45 0 -93 18.5t-85.5 37t-57.5 18.5q-31 0 -49 -25t-22 -51z" />
    <glyph glyph-name="hungarumlaut" unicode="&#x2dd;" horiz-adv-x="1110" 
d="M541 1485h196l-198 -260h-138zM831 1485h197l-199 -260h-137z" />
    <glyph glyph-name="gravecomb" unicode="&#x300;" 
d="M37 1485l37 -260h-129l-101 260h193z" />
    <glyph glyph-name="acutecomb" unicode="&#x301;" 
d="M-70 1485h197l-199 -260h-137z" />
    <glyph glyph-name="uni0302" unicode="&#x302;" 
d="M-487 1225l237 260h184l140 -260h-160l-82 172h-4l-147 -172h-168z" />
    <glyph glyph-name="tildecomb" unicode="&#x303;" 
d="M-485 1282q19 96 68.5 141t109.5 45q45 0 92.5 -18t85 -36.5t57.5 -18.5q56 0 72 75l121 -12q-20 -98 -68.5 -142t-109.5 -44q-45 0 -93 18.5t-85.5 37t-57.5 18.5q-31 0 -49.5 -25t-22.5 -51z" />
    <glyph glyph-name="uni0304" unicode="&#x304;" 
d="M-414 1434h529l-27 -144h-528z" />
    <glyph glyph-name="uni0306" unicode="&#x306;" 
d="M-176 1217q-118 0 -178 70.5t-39 203.5l121 -12q-10 -75 13.5 -107.5t86.5 -32.5q135 0 176 152l121 -12q-31 -129 -111 -195.5t-190 -66.5z" />
    <glyph glyph-name="uni0307" unicode="&#x307;" 
d="M-96 1393q6 38 35.5 64t72.5 26q52 0 75.5 -33.5t14.5 -81.5q-6 -37 -35.5 -62.5t-72.5 -25.5q-52 0 -75.5 33t-14.5 80z" />
    <glyph glyph-name="uni0308" unicode="&#x308;" 
d="M-403 1393q6 38 35.5 64t72.5 26q52 0 75.5 -33.5t14.5 -81.5q-6 -37 -35.5 -62.5t-72.5 -25.5q-52 0 -75.5 33t-14.5 80zM-96 1393q6 38 35.5 64t72.5 26q52 0 75.5 -33.5t14.5 -81.5q-6 -37 -35.5 -62.5t-72.5 -25.5q-52 0 -75.5 33t-14.5 80z" />
    <glyph glyph-name="uni030A" unicode="&#x30a;" 
d="M-100 1194q-78 0 -122.5 53.5t-29.5 136.5q13 72 72 120t129 48q78 0 124 -55t29 -137q-15 -73 -73 -119.5t-129 -46.5zM-96 1276q47 0 77.5 28t38.5 72q9 45 -13 69.5t-62 24.5q-49 0 -79 -28t-38 -72q-9 -46 12.5 -70t63.5 -24z" />
    <glyph glyph-name="uni030B" unicode="&#x30b;" 
d="M-360 1485h196l-198 -260h-138zM-70 1485h197l-199 -260h-137z" />
    <glyph glyph-name="uni030C" unicode="&#x30c;" 
d="M-434 1485h160l81 -172h5l147 172h168l-238 -260h-184z" />
    <glyph glyph-name="uni0312" unicode="&#x312;" 
d="M23 1376q53 21 86 -8t20 -98q-9 -45 -42.5 -73t-74.5 -28q-61 0 -84.5 51t-7.5 136q7 35 23.5 71t44.5 75t75.5 68.5t106.5 39.5l-8 -86q-49 -10 -87 -51t-52 -97z" />
    <glyph glyph-name="uni0326" unicode="&#x326;" 
d="M-326 -328q-53 -21 -86 8.5t-20 98.5q9 44 43 72t74 28q63 0 86.5 -51t5.5 -135q-13 -76 -73 -145t-171 -89l6 86q110 23 135 127z" />
    <glyph glyph-name="uni0327" unicode="&#x327;" 
d="M-276 -14l-105 -107l-10 -4q45 7 87.5 -3.5t71 -44.5t19.5 -87q-13 -65 -81 -103t-150 -38q-64 0 -122 18t-93 45l45 45q76 -29 143 -29q55 0 94 26t45 63q4 25 -14 34t-70 9q-50 0 -88 -17l-22 41l143 152h107z" />
    <glyph glyph-name="uni0328" unicode="&#x328;" 
d="M-356 -362q-95 0 -137 44.5t-27 118.5q11 63 67.5 119t120.5 82l131 -6q-163 -112 -174 -184q-6 -25 10.5 -38.5t45.5 -13.5q47 0 110 23l-16 -127q-62 -18 -131 -18z" />
    <glyph glyph-name="uni0335" unicode="&#x335;" 
d="M-2 829l-27 -143h-835l26 143h836z" />
    <glyph glyph-name="uni0336" unicode="&#x336;" 
d="M-2 829l-35 -184h-1024l35 184h1024z" />
    <glyph glyph-name="uni0337" unicode="&#x337;" 
d="M-1239 53l53 -71l1213 1013l-56 72z" />
    <glyph glyph-name="uni0338" unicode="&#x338;" 
d="M-1239 53l53 -71l1213 1013l-56 72z" />
    <glyph glyph-name="Wgrave" unicode="&#x1e80;" horiz-adv-x="1853" 
d="M1143 1905l37 -260h-131l-99 260h193zM195 1464h192l45 -1200h4l561 1200h205l94 -1200h4l512 1200h197l-647 -1464h-205l-94 1255h-4l-582 -1255h-205z" />
    <glyph glyph-name="wgrave" unicode="&#x1e81;" horiz-adv-x="1503" 
d="M889 1485l37 -260h-129l-101 260h193zM104 1044h179l69 -866h4l402 866h174l67 -866h5l405 866h182l-536 -1044h-174l-68 862h-4l-399 -862h-174z" />
    <glyph glyph-name="Wacute" unicode="&#x1e82;" horiz-adv-x="1853" 
d="M1196 1905h197l-201 -260h-135zM195 1464h192l45 -1200h4l561 1200h205l94 -1200h4l512 1200h197l-647 -1464h-205l-94 1255h-4l-582 -1255h-205z" />
    <glyph glyph-name="wacute" unicode="&#x1e83;" horiz-adv-x="1503" 
d="M942 1485h197l-199 -260h-137zM104 1044h179l69 -866h4l402 866h174l67 -866h5l405 866h182l-536 -1044h-174l-68 862h-4l-399 -862h-174z" />
    <glyph glyph-name="Wdieresis" unicode="&#x1e84;" horiz-adv-x="1853" 
d="M905 1812q8 38 38 64.5t73 26.5q52 0 75.5 -33.5t14.5 -81.5q-6 -37 -36 -62.5t-73 -25.5q-52 0 -76 32.5t-16 79.5zM1212 1812q8 38 38 64.5t73 26.5q52 0 75.5 -33.5t14.5 -81.5q-6 -37 -35.5 -62.5t-72.5 -25.5q-52 0 -76.5 32.5t-16.5 79.5zM195 1464h192l45 -1200h4
l561 1200h205l94 -1200h4l512 1200h197l-647 -1464h-205l-94 1255h-4l-582 -1255h-205z" />
    <glyph glyph-name="wdieresis" unicode="&#x1e85;" horiz-adv-x="1503" 
d="M653 1393q6 38 36 64t73 26q52 0 75.5 -33.5t14.5 -81.5q-6 -37 -36 -62.5t-73 -25.5q-52 0 -75.5 33t-14.5 80zM961 1393q6 38 35.5 64t72.5 26q52 0 75.5 -33.5t14.5 -81.5q-6 -37 -35.5 -62.5t-72.5 -25.5q-52 0 -75.5 33t-14.5 80zM104 1044h179l69 -866h4l402 866
h174l67 -866h5l405 866h182l-536 -1044h-174l-68 862h-4l-399 -862h-174z" />
    <glyph glyph-name="Ygrave" unicode="&#x1ef2;" horiz-adv-x="1236" 
d="M836 1905l36 -260h-131l-98 260h193zM168 1464h197l282 -716h4l568 716h200l-702 -864l-119 -600h-184l118 600z" />
    <glyph glyph-name="ygrave" unicode="&#x1ef3;" horiz-adv-x="1001" 
d="M637 1485l37 -260h-129l-101 260h193zM1092 1044l-666 -1136q-65 -109 -101 -150q-98 -109 -233 -110q-67 0 -141 22l20 121h19q71 -6 122.5 7.5t98.5 58.5q48 39 80 102.5t20 132.5l-213 952h183l153 -851h4l467 851h187z" />
    <glyph glyph-name="endash" unicode="&#x2013;" horiz-adv-x="1218" 
d="M111 604h1024l-33 -164h-1024z" />
    <glyph glyph-name="emdash" unicode="&#x2014;" horiz-adv-x="2048" 
d="M219 602h1639l-33 -164h-1639z" />
    <glyph glyph-name="quoteleft" unicode="&#x2018;" horiz-adv-x="395" 
d="M322 1217q53 21 85 -11t19 -102q-10 -52 -43.5 -79.5t-77.5 -27.5q-60 0 -83 46.5t-9 125.5q8 43 26 87t48 90t78 80t106 44l-10 -106q-49 -10 -87 -50.5t-52 -96.5z" />
    <glyph glyph-name="quoteright" unicode="&#x2019;" horiz-adv-x="389" 
d="M348 1260q-53 -21 -85 10.5t-19 101.5q9 52 42.5 79.5t78.5 27.5q59 0 82.5 -47t9.5 -125q-8 -43 -26 -87t-48.5 -90t-78.5 -80t-107 -44l12 106q49 10 87 51t52 97z" />
    <glyph glyph-name="quotesinglbase" unicode="&#x201a;" horiz-adv-x="387" 
d="M102 -8q-54 -21 -86.5 10.5t-19.5 101.5q10 52 44 79.5t79 27.5q59 0 82 -47t8 -125q-8 -43 -26 -87t-47.5 -90t-77.5 -80t-107 -44l10 106q50 10 88 50.5t53 97.5z" />
    <glyph glyph-name="quotedblleft" unicode="&#x201c;" horiz-adv-x="700" 
d="M326 1217q53 21 85 -11t19 -102q-10 -52 -43.5 -79.5t-77.5 -27.5q-60 0 -83 46.5t-9 125.5q8 43 26 87t48 90t78 80t106 44l-10 -106q-49 -10 -87 -50.5t-52 -96.5zM627 1217q53 21 85 -11t19 -102q-10 -52 -43.5 -79.5t-77.5 -27.5q-60 0 -83 46.5t-9 125.5q8 43 26 87
t48 90t78 80t106 44l-10 -106q-49 -10 -87 -50.5t-52 -96.5z" />
    <glyph glyph-name="quotedblright" unicode="&#x201d;" horiz-adv-x="686" 
d="M344 1260q-53 -21 -85 10.5t-19 101.5q9 52 42 79.5t78 27.5q59 0 83 -47t10 -125q-8 -43 -26 -87t-48.5 -90t-78.5 -80t-107 -44l12 106q49 10 87 51t52 97zM645 1260q-53 -21 -85 10.5t-19 101.5q9 52 42.5 79.5t78.5 27.5q59 0 82.5 -47t9.5 -125q-8 -43 -26 -87
t-48.5 -90t-78.5 -80t-107 -44l12 106q49 10 87 51t52 97z" />
    <glyph glyph-name="quotedblbase" unicode="&#x201e;" horiz-adv-x="690" 
d="M102 -8q-54 -21 -86.5 10.5t-19.5 101.5q10 52 44 79.5t79 27.5q59 0 82 -47t8 -125q-8 -43 -26 -87t-47.5 -90t-77.5 -80t-107 -44l10 106q50 10 88 50.5t53 97.5zM406 -8q-54 -21 -87 10.5t-20 101.5q10 52 44 79.5t79 27.5q59 0 82 -47t8 -125q-8 -43 -26 -87
t-47.5 -90t-77.5 -80t-107 -44l10 106q50 10 88.5 51t53.5 97z" />
    <glyph glyph-name="dagger" unicode="&#x2020;" horiz-adv-x="1038" 
d="M496 885h-361l33 164h360l80 415h185l-80 -415h358l-33 -164h-358l-242 -1247h-184z" />
    <glyph glyph-name="daggerdbl" unicode="&#x2021;" horiz-adv-x="1036" 
d="M369 229h-361l33 164h360l95 492h-361l33 164h360l80 415h185l-80 -415h358l-33 -164h-358l-94 -492h358l-33 -164h-358l-115 -591h-184z" />
    <glyph glyph-name="bullet" unicode="&#x2022;" horiz-adv-x="610" 
d="M293 410q-114 0 -170.5 75t-34.5 183q19 99 97 166t184 67q115 0 171 -74.5t35 -183.5q-21 -100 -98 -166.5t-184 -66.5z" />
    <glyph glyph-name="ellipsis" unicode="&#x2026;" horiz-adv-x="1050" 
d="M100 -14q-53 0 -80.5 34.5t-17.5 90.5q9 45 43.5 72.5t79.5 27.5q52 0 80 -35t18 -90q-9 -46 -44 -73t-79 -27zM428 -14q-53 0 -80.5 34.5t-17.5 90.5q9 45 43.5 72.5t79.5 27.5q52 0 80 -35t18 -90q-9 -46 -44 -73t-79 -27zM756 -14q-53 0 -81 34.5t-18 90.5
q9 45 43.5 72.5t79.5 27.5q52 0 80.5 -35t18.5 -90q-9 -46 -44 -73t-79 -27z" />
    <glyph glyph-name="perthousand" unicode="&#x2030;" horiz-adv-x="2404" 
d="M406 633q-66 0 -118 22t-83.5 60.5t-50 91t-18.5 114.5t11 130q21 110 72 197t135.5 141.5t190.5 54.5q84 0 144 -33.5t88 -91t36.5 -133.5t-10.5 -160q-33 -171 -135.5 -282t-261.5 -111zM1448 1415l-1020 -1415h-145l1017 1415h148zM414 776q96 0 161 75t89 200
q22 116 -9 182.5t-118 66.5q-96 0 -161 -74.5t-89 -199.5q-22 -116 9 -183t118 -67zM1184 -29q-83 0 -142.5 33.5t-88 91t-37.5 133.5t10 160q34 171 137.5 282t259.5 111q84 0 144 -33.5t88 -90.5t36.5 -133t-10.5 -160q-33 -171 -135.5 -282.5t-261.5 -111.5zM1923 -29
q-83 0 -142.5 33.5t-88 91t-37.5 133.5t10 160q34 171 137.5 282t259.5 111q84 0 144 -33.5t88 -90.5t36.5 -133t-10.5 -160q-33 -171 -135.5 -282.5t-261.5 -111.5zM1194 115q94 0 159 74.5t89 199.5q24 116 -8 183t-119 67q-96 0 -161 -74.5t-89 -199.5q-23 -116 9 -183
t120 -67zM1933 115q94 0 159 74.5t89 199.5q24 116 -8 183t-119 67q-96 0 -161 -74.5t-89 -199.5q-23 -116 9 -183t120 -67z" />
    <glyph glyph-name="guilsinglleft" unicode="&#x2039;" horiz-adv-x="497" 
d="M80 424l33 184l346 234l-31 -164l-244 -160l-2 -4l180 -160l-28 -164z" />
    <glyph glyph-name="guilsinglright" unicode="&#x203a;" horiz-adv-x="503" 
d="M381 424l-344 -234l29 164l245 160v4l-180 160l31 164l252 -234z" />
    <glyph glyph-name="fraction" unicode="&#x2044;" horiz-adv-x="557" 
d="M934 1464h145l-1376 -1464h-145z" />
    <glyph glyph-name="Euro" unicode="&#x20ac;" horiz-adv-x="1280" 
d="M641 135q82 0 150 32t114.5 87.5t77 116.5t49.5 131h182q-73 -250 -222 -390.5t-365 -140.5q-217 0 -331 146.5t-103 394.5h-132l23 123h121q1 21 10 80q8 46 8 49h-117l25 123h129q87 256 253 400.5t380 144.5q110 0 192.5 -38t130 -105.5t68.5 -154t14 -188.5h-180
q0 50 -3.5 88t-17.5 84.5t-38.5 77t-70 51.5t-107.5 21q-79 0 -148.5 -30t-123.5 -84t-94.5 -120.5t-70.5 -146.5h408l-25 -123h-417q-14 -53 -17 -74q-1 -4 -2.5 -15t-3 -21t-2.5 -19h420l-23 -123h-407q-6 -173 57 -275t209 -102z" />
    <glyph glyph-name="trademark" unicode="&#x2122;" horiz-adv-x="1286" 
d="M399 1368h-184l18 96h484l-19 -96h-184l-90 -469h-115zM793 1464h163l45 -426l213 426h166l-108 -565h-107l82 428h-2l-215 -428h-108l-45 428h-7l-82 -428h-104z" />
    <glyph glyph-name="arrowleft" unicode="&#x2190;" horiz-adv-x="1538" 
d="M496 100l-410 553l616 553l95 -100l-430 -381h1149l-27 -143h-1153l285 -381z" />
    <glyph glyph-name="arrowup" unicode="&#x2191;" horiz-adv-x="1228" 
d="M1241 903l-119 -110l-313 358l-225 -1151h-144l226 1151l-449 -358l-82 110l649 512z" />
    <glyph glyph-name="arrowright" unicode="&#x2192;" horiz-adv-x="1538" 
d="M887 100l-96 101l432 381h-1149l26 143h1153l-286 381l127 100l407 -553z" />
    <glyph glyph-name="arrowdown" unicode="&#x2193;" horiz-adv-x="1228" 
d="M1149 430l-649 -512l-457 512l119 111l313 -359l225 1151h144l-226 -1151l449 359z" />
    <glyph glyph-name="arrowboth" unicode="&#x2194;" horiz-adv-x="2334" 
d="M1890 1206l408 -553l-615 -553l-96 101l432 381h-1683l285 -381l-125 -101l-410 553l616 553l95 -100l-430 -381h1683l-287 381z" />
    <glyph glyph-name="arrowupdn" unicode="&#x2195;" horiz-adv-x="1228" 
d="M563 -98l449 358l84 -110l-650 -512l-456 512l116 110l314 -358l285 1444l-449 -359l-82 111l649 512l457 -512l-119 -111l-313 359z" />
    <glyph glyph-name="uni2196" unicode="&#x2196;" horiz-adv-x="1202" 
d="M45 475l176 754l760 28l-25 -149l-526 -16l657 -813l-116 -101l-660 813l-116 -522z" />
    <glyph glyph-name="uni2197" unicode="&#x2197;" horiz-adv-x="1202" 
d="M1130 475l-149 -6l88 522l-971 -813l-84 101l969 813l-518 16l37 149l747 -28z" />
    <glyph glyph-name="uni2198" unicode="&#x2198;" horiz-adv-x="1202" 
d="M1204 844l-176 -754l-760 -29l25 150l526 16l-657 813l117 101l659 -813l117 522z" />
    <glyph glyph-name="uni2199" unicode="&#x2199;" horiz-adv-x="1202" 
d="M119 844l149 6l-88 -522l971 813l84 -101l-969 -813l518 -16l-36 -150l-748 29z" />
    <glyph glyph-name="partialdiff" unicode="&#x2202;" horiz-adv-x="1130" 
d="M911 831l7 15q3 94 -18.5 169.5t-60 125t-94.5 84t-116.5 52t-132.5 23.5l22 164q120 -5 216.5 -39t161.5 -91t108.5 -133t61.5 -167.5t17 -191t-22 -207.5q-21 -106 -57.5 -201t-93 -180.5t-127.5 -147.5t-166 -98.5t-203 -36.5q-192 0 -284 132t-48 354q19 98 71 190.5
t125 162.5t168.5 112.5t194.5 42.5q192 0 270 -134zM453 135q145 0 257 113t144 272q22 116 -32 198.5t-165 82.5q-142 0 -255.5 -114.5t-143.5 -272.5q-25 -125 33 -202t162 -77z" />
    <glyph glyph-name="emptyset" unicode="&#x2205;" horiz-adv-x="1632" 
d="M1516 1200q147 -208 88 -506q-25 -127 -84 -240.5t-144 -201t-189 -151t-224 -97t-244 -33.5q-287 0 -467 172l-160 -135l-61 72l157 133q-147 208 -88 506q31 159 115.5 295t202.5 230t266 147t303 53q285 0 465 -172l162 137l61 -74zM197 694q-46 -242 73 -413
l1104 923q-146 137 -387 137q-183 0 -349.5 -81t-285 -230t-155.5 -336zM721 74q180 0 346 81t284.5 229.5t155.5 334.5q46 242 -69 416l-1106 -924q146 -137 389 -137z" />
    <glyph glyph-name="product" unicode="&#x220f;" horiz-adv-x="1116" 
d="M186 1464h1149l-323 -1669h-185l293 1505h-780l-293 -1505h-184z" />
    <glyph glyph-name="summation" unicode="&#x2211;" horiz-adv-x="937" 
d="M-164 -35l701 680l2 4l-441 647l31 168h1081l-30 -164h-867l-2 -4l391 -591l-16 -103l-645 -639l-2 -4h901l-33 -164h-1102z" />
    <glyph glyph-name="minus" unicode="&#x2212;" horiz-adv-x="1142" 
d="M152 766h929l-30 -164h-930z" />
    <glyph glyph-name="radical" unicode="&#x221a;" horiz-adv-x="1304" 
d="M66 643h276l78 -618h4l754 1439h186l-901 -1669h-164l-111 684h-153z" />
    <glyph glyph-name="infinity" unicode="&#x221e;" horiz-adv-x="1445" 
d="M70 635q32 168 131.5 256t216.5 88q34 0 65 -5t58 -18t47.5 -23.5t43.5 -33t35 -34t31.5 -39t25.5 -36t24 -36.5l6 8q102 96 155 132q124 85 248 85q58 0 106.5 -22.5t82.5 -68.5t44.5 -115t-6.5 -163q-32 -166 -131 -254t-215 -88q-35 0 -66.5 7.5t-55.5 17.5t-49 29.5
t-40.5 34t-35.5 40.5t-29 40t-26.5 41.5t-22.5 35.5l-6 -8q-8 -8 -37 -35.5t-43 -40.5t-44 -38.5t-50 -39t-51.5 -32.5t-58 -28.5t-59.5 -16.5t-65 -7q-59 0 -107.5 22.5t-83 68t-45 114.5t6.5 162zM346 434q24 0 48 6t50.5 21.5t44 25.5t46.5 37t38.5 35.5t40.5 40t33 33.5
q-3 5 -19 31t-23 36.5t-23.5 33t-29.5 33.5t-31.5 24.5t-38.5 19.5t-42 6q-78 0 -134.5 -52t-76.5 -153q-18 -91 14 -134.5t103 -43.5zM1016 434q77 0 134.5 51.5t76.5 151.5q18 91 -14.5 135.5t-102.5 44.5q-29 0 -60 -11t-52.5 -22.5t-55.5 -40t-46 -40t-48 -48t-39 -39.5
q1 -1 16 -26.5t19 -31.5t19.5 -28.5t24 -31t25.5 -24.5t31 -22t33 -12t39 -6z" />
    <glyph glyph-name="integral" unicode="&#x222b;" horiz-adv-x="940" 
d="M438 -23q-29 -153 -117 -244t-229 -91q-81 0 -145 22l20 160q49 -8 88 -6.5t70.5 17t55 37t41.5 52.5t29 63t19 70l217 1121q31 153 119.5 244t227.5 91q83 0 147 -22l-23 -160q-73 12 -124.5 1t-88 -48.5t-57 -83t-31.5 -102.5z" />
    <glyph glyph-name="approxequal" unicode="&#x2248;" horiz-adv-x="1150" 
d="M846 690q-79 0 -233.5 36t-225.5 36q-69 0 -101.5 -23.5t-43.5 -74.5l-140 12q7 41 24.5 78t48 72.5t81 57t115.5 21.5q79 0 232.5 -35.5t225.5 -35.5q68 0 101.5 23.5t42.5 74.5l141 -12q-8 -41 -25.5 -78t-47.5 -73t-80.5 -57.5t-114.5 -21.5zM782 369
q-78 0 -231.5 35.5t-226.5 35.5q-68 0 -101.5 -23.5t-42.5 -74.5l-141 12q7 41 24.5 78t47.5 73t80.5 57.5t115.5 21.5q79 0 233.5 -36t225.5 -36q69 0 101.5 23.5t41.5 74.5l142 -12q-7 -41 -24.5 -78t-48 -72.5t-81 -57t-115.5 -21.5z" />
    <glyph glyph-name="notequal" unicode="&#x2260;" horiz-adv-x="1136" 
d="M1069 723h-362l-107 -162h438l-32 -164h-514l-150 -225h-147l149 225h-268l33 164h344l106 162h-420l33 164h498l129 196h147l-131 -196h287z" />
    <glyph glyph-name="lessequal" unicode="&#x2264;" horiz-adv-x="1040" 
d="M879 219l-770 336l34 184l899 338l-30 -164l-752 -264l-2 -4l651 -262zM862 143l-28 -143h-834l29 143h833z" />
    <glyph glyph-name="greaterequal" unicode="&#x2265;" horiz-adv-x="1040" 
d="M49 219l31 164l749 262l2 4l-649 264l31 164l768 -338l-35 -184zM33 143h833l-28 -143h-834z" />
    <glyph glyph-name="lozenge" unicode="&#x25ca;" horiz-adv-x="1118" 
d="M84 733l555 731h184l273 -733l-555 -731h-185zM481 164l428 561l-207 575h-4l-430 -563l209 -573h4z" />
    <glyph glyph-name="i.loclTRK" horiz-adv-x="423" 
d="M279 1393q6 38 35.5 64t72.5 26q52 0 75.5 -33.5t14.5 -81.5q-6 -37 -35.5 -62.5t-72.5 -25.5q-52 0 -75.5 33t-14.5 80zM240 1044h163l-204 -1044h-164z" />
    <glyph glyph-name="logo" horiz-adv-x="1839" 
d="M57 500q22 111 99 166t180 55q-97 0 -154.5 63.5t-34.5 182.5q17 87 70 150.5t112 90.5t115 27q19 0 35.5 -2t32.5 -7.5t23 -8t23 -10.5t17 -9q-21 76 -10 139q7 40 31.5 81t63 78t97.5 60t126 23q117 0 166 -70t30 -166q20 104 89 170t182 66q70 0 122 -25t78 -65
t35.5 -85.5t1.5 -90.5q-13 -76 -61 -117q49 39 127 39q44 0 85.5 -18.5t74.5 -53t47 -92.5t0 -129q-22 -111 -99 -166t-180 -55q97 0 154 -63.5t34 -182.5q-13 -66 -46.5 -119.5t-76.5 -84.5t-87.5 -47.5t-85.5 -16.5q-19 0 -35.5 2t-32 7.5t-23 8t-22.5 10.5t-17 9
q1 -2 4.5 -15t5 -19t4 -20t3 -25.5t-1 -27.5t-4.5 -33q-17 -89 -104 -165t-216 -76q-117 0 -166 69.5t-30 165.5q-20 -104 -89 -169.5t-182 -65.5q-70 0 -122 25t-78 65t-35.5 85.5t-1.5 90.5q13 76 61 117q-49 -39 -127 -39q-44 0 -85.5 18.5t-74.5 53t-47 92.5t0 129z
M287 942q-12 -67 25.5 -108t148.5 -41h293q79 0 120 34.5t56 114.5l57 293q39 201 -113 201q-75 0 -130.5 -44t-67.5 -114q-13 -74 31 -139q8 4 22 4q57 0 90 -39.5t21 -93.5q-11 -47 -51 -80t-87 -33q-52 0 -78 36.5t-26 100.5q0 11 8 21q-54 57 -131 57q-61 0 -118 -49
t-70 -121zM1071 930q-15 -79 9 -108t104 -29h293q111 0 169.5 49t73.5 125q13 64 -19 104.5t-87 40.5q-85 0 -172 -76q0 -1 -4 -26q-7 -49 -47 -81t-86 -32q-56 0 -87 39.5t-22 97.5q7 44 47.5 76.5t87.5 32.5q17 0 29 4q84 66 102 156q12 61 -21.5 97t-99.5 36
q-75 0 -133 -50.5t-80 -162.5zM197 475q-13 -63 19.5 -104t86.5 -41q85 0 172 76q3 6 6 26q7 50 46.5 81.5t86.5 31.5q55 0 85.5 -40t21.5 -97q-7 -44 -47.5 -76.5t-87.5 -32.5q-17 0 -29 -4q-84 -66 -102 -156q-12 -61 21 -97t99 -36q75 0 133 50.5t80 162.5l58 293
q15 80 -8.5 108.5t-102.5 28.5h-293q-111 0 -170.5 -49t-74.5 -125zM930 207q-39 -201 112 -201q75 0 129.5 43.5t69.5 114.5q16 75 -31 139q-8 -4 -22 -4q-56 0 -88 39t-21 94q9 47 49 80t89 33q51 0 76.5 -36.5t25.5 -100.5q0 -14 -6 -21q54 -57 129 -57q62 0 118.5 48.5
t69.5 121.5q12 67 -24.5 108t-147.5 41h-293q-80 0 -121.5 -35t-56.5 -114z" />
    </font>
</defs>
</svg>
